<?xml version="1.0" standalone="no"?>
<!DOCTYPE svg PUBLIC "-//W3C//DTD SVG 20010904//EN"
 "http://www.w3.org/TR/2001/REC-SVG-20010904/DTD/svg10.dtd">
<svg version="1.0" xmlns="http://www.w3.org/2000/svg"
 width="700.000000pt" height="700.000000pt" viewBox="0 0 700.000000 700.000000"
 preserveAspectRatio="xMidYMid meet">
<metadata>
Created by potrace 1.14, written by Peter Selinger 2001-2017
</metadata>
<g transform="translate(0.000000,700.000000) scale(0.100000,-0.100000)"
fill="#000000" stroke="none">
<path d="M872 5952 l-22 -3 2 -2532 3 -2532 85 0 c47 0 90 -3 96 -7 6 -4 14
-4 18 0 11 10 198 11 217 1 9 -5 20 -5 24 -1 10 10 197 11 216 1 9 -5 20 -5
24 -1 10 10 197 11 217 1 9 -5 19 -5 22 -1 3 4 60 8 128 7 68 0 128 3 133 9
11 10 12 76 2 93 -4 6 -198 9 -533 9 -400 -1 -531 2 -543 11 -9 7 -11 13 -5
13 11 0 11 51 -1 69 -3 6 -2 11 2 11 10 0 9 53 -2 69 -3 6 -3 11 2 11 4 0 7
30 5 67 -1 38 -2 74 -2 81 0 6 0 19 0 27 0 8 0 22 0 30 0 8 0 22 0 30 0 8 0
22 0 30 0 8 0 22 0 30 0 8 0 22 0 30 0 8 0 22 0 30 0 8 0 21 0 28 0 6 1 23 3
37 2 14 -1 31 -6 38 -6 7 -6 12 0 12 11 0 11 29 -1 48 -4 6 -3 12 2 12 10 0 9
30 -2 48 -4 6 -3 12 2 12 10 0 9 30 -2 48 -4 6 -4 12 1 12 10 0 9 91 -1 108
-4 7 -3 12 2 12 10 0 9 30 -2 48 -4 6 -3 12 2 12 10 0 9 30 -2 48 -4 6 -3 12
2 12 10 0 9 30 -1 47 -4 6 -3 14 2 18 6 3 7 15 1 29 -4 12 -4 29 0 36 5 8 5
21 0 30 -5 9 -5 22 0 30 5 8 5 21 0 30 -5 9 -5 22 0 30 5 8 5 21 0 30 -5 9 -5
22 0 30 5 8 5 21 0 30 -4 8 -4 22 0 31 5 8 5 21 0 28 -4 8 -5 25 -1 40 8 33 7
53 -2 69 -5 6 -4 12 1 12 10 0 9 30 -2 48 -4 6 -3 12 2 12 10 0 9 30 -2 48 -4
6 -3 12 2 12 10 0 9 30 -1 47 -4 6 -3 14 2 18 6 3 7 15 1 29 -4 12 -4 29 0 36
5 8 5 21 0 30 -5 9 -5 22 0 30 5 8 5 21 0 30 -5 9 -5 22 0 30 5 8 5 21 0 30
-4 8 -4 22 0 31 5 8 5 21 0 29 -5 8 -5 21 0 30 5 9 5 22 1 29 -5 7 -5 27 -2
45 4 17 5 42 4 56 -2 14 -3 31 -3 38 0 6 0 19 0 27 0 8 0 22 0 30 0 8 0 22 0
30 0 8 0 22 0 30 0 8 0 22 0 30 0 8 0 22 0 30 0 8 0 22 0 30 0 8 0 21 0 28 0
6 1 23 3 37 2 14 -1 31 -6 38 -6 7 -6 12 0 12 11 0 11 29 -1 48 -4 6 -3 12 2
12 10 0 9 30 -2 48 -4 6 -3 12 2 12 10 0 9 30 -2 48 -4 6 -3 12 2 12 6 0 7 14
2 35 -4 19 -5 35 -1 35 9 0 6 54 -4 69 -3 6 -2 11 3 11 10 0 7 54 -3 71 -4 5
-2 9 2 9 10 0 9 53 -2 69 -3 6 -3 11 2 11 4 0 8 27 8 60 0 33 -4 60 -8 60 -5
0 -5 6 -1 12 11 18 12 48 2 48 -5 0 -6 6 -2 12 11 18 12 48 2 48 -5 0 -6 6 -2
12 11 18 12 48 2 48 -5 0 -6 6 -2 12 11 18 12 48 2 48 -5 0 -6 6 -2 12 11 18
12 48 2 48 -5 0 -6 6 -2 12 11 18 12 48 2 48 -5 0 -6 6 -2 12 11 18 12 48 2
48 -5 0 -6 6 -2 12 12 19 12 48 0 48 -6 0 -6 4 1 11 8 8 8 20 2 36 -5 15 -5
22 0 18 6 -3 6 6 1 25 -5 16 -5 30 -1 30 9 0 6 54 -4 69 -3 6 -2 11 3 11 10 0
7 54 -3 71 -4 5 -2 9 2 9 10 0 9 53 -2 69 -3 6 -3 11 2 11 4 0 7 30 5 67 -1
38 -2 74 -2 81 0 6 0 19 0 27 0 8 0 22 0 30 0 8 0 22 0 30 0 8 0 22 0 30 0 8
0 22 0 30 0 8 0 22 0 30 0 8 0 22 0 30 0 8 0 21 0 28 0 6 1 23 3 37 2 14 -1
31 -6 38 -6 7 -6 12 0 12 11 0 11 29 -1 48 -4 6 -3 12 2 12 10 0 9 30 -2 48
-4 6 -3 12 2 12 10 0 9 30 -2 48 -4 6 -4 12 1 12 4 0 7 24 5 52 -2 29 -3 60
-2 68 0 8 0 23 1 33 0 9 8 18 17 18 9 1 24 2 32 3 8 0 18 -3 22 -9 5 -6 8 -5
8 4 0 11 3 11 15 1 8 -7 15 -8 15 -3 0 5 9 9 20 9 11 0 20 -4 20 -9 0 -4 6 -5
12 -1 16 10 48 13 48 5 0 -4 16 -5 35 -4 19 2 51 4 70 6 19 1 37 -2 39 -8 3
-7 7 -7 13 0 10 12 83 15 83 3 0 -5 8 -4 18 1 13 7 23 6 30 -1 8 -8 12 -9 12
-1 0 13 32 12 42 -2 5 -6 8 -5 8 4 0 11 3 11 15 1 8 -7 15 -8 15 -3 0 5 9 9
20 9 11 0 20 -4 20 -9 0 -4 6 -5 12 -1 16 10 48 13 48 5 0 -4 15 -5 33 -4 17
2 49 4 69 6 21 1 40 -2 42 -8 3 -7 7 -7 13 0 10 12 83 15 83 3 0 -5 9 -4 19 2
14 7 22 7 26 0 5 -8 11 -7 21 1 10 8 14 8 14 0 0 -7 8 -8 25 -1 14 5 25 7 25
4 0 -4 6 -1 14 5 13 11 14 43 1 79 -2 6 1 12 7 12 6 0 8 3 5 7 -7 6 -1130 11
-1175 5z"/>
<path d="M4895 5933 c-11 -16 -12 -23 -2 -26 8 -4 8 -6 -2 -6 -11 -1 -11 -4
-1 -16 9 -10 9 -15 1 -15 -8 0 -8 -5 0 -17 10 -17 47 -18 542 -18 l532 0 0
-2420 0 -2420 -525 -1 c-289 0 -532 -4 -540 -8 -12 -5 -15 -17 -10 -54 5 -47
5 -47 45 -48 22 -1 45 -3 50 -4 6 -1 15 -1 20 0 28 6 95 4 95 -3 0 -4 5 -5 12
-1 14 9 68 11 68 3 0 -7 31 -5 45 2 9 5 72 4 85 -1 3 -1 10 -1 15 0 28 6 95 4
95 -3 0 -4 5 -5 12 -1 14 9 68 11 68 3 0 -7 31 -5 45 2 9 5 72 4 85 -1 3 -1
10 -1 15 0 28 6 95 4 95 -3 0 -4 5 -5 12 -1 14 9 68 11 68 3 0 -7 31 -5 45 2
12 7 63 5 70 -3 3 -3 21 -2 38 2 18 4 43 3 55 -1 12 -5 24 -4 27 2 4 5 10 7
15 4 6 -3 9 1037 9 2532 l0 2538 -585 0 -585 0 -14 -22z"/>
<path d="M1582 4841 c-6 -3 -9 -39 -8 -78 1 -45 -2 -73 -9 -73 -6 0 -7 -3 0
-8 13 -9 13 -225 0 -234 -7 -5 -7 -8 0 -8 6 0 10 -45 10 -115 0 -70 -4 -115
-10 -115 -7 0 -7 -3 0 -8 13 -9 13 -205 0 -214 -7 -5 -7 -8 0 -8 6 0 9 -23 9
-52 -2 -60 15 -158 27 -158 4 0 10 -8 14 -19 12 -40 74 -88 135 -106 22 -7
186 -10 440 -9 359 1 410 3 447 18 59 25 124 98 140 159 7 25 12 1006 6 1023
-3 8 -44 11 -126 10 l-122 -1 -5 -480 -5 -480 -100 1 c-55 1 -104 2 -110 3 -7
1 -10 164 -9 468 0 258 -1 473 -3 478 -5 15 -243 16 -244 1 -1 -6 -3 -213 -4
-461 -2 -247 -3 -459 -4 -470 -1 -19 -8 -20 -111 -20 -66 0 -111 4 -111 10 -1
6 -3 217 -4 470 -1 253 -3 465 -4 471 -1 11 -222 16 -239 5z"/>
<path d="M3080 4836 c-5 -5 -10 -7 -10 -3 0 13 -84 -35 -103 -59 -10 -13 -24
-30 -30 -37 -39 -40 -41 -60 -42 -486 -1 -275 2 -425 9 -445 13 -36 48 -96 56
-96 3 0 17 -11 31 -24 52 -49 69 -50 602 -51 322 0 501 4 506 10 9 12 8 216
-1 230 -5 8 -158 11 -473 10 -257 0 -470 2 -474 5 -4 3 -7 53 -7 112 0 99 2
107 21 110 11 2 226 3 477 2 317 0 458 3 461 10 2 6 3 63 2 126 l0 115 -465 2
c-256 1 -472 2 -481 2 -13 1 -15 17 -13 109 1 59 2 109 3 112 1 3 213 4 471 4
337 -1 472 2 478 10 11 18 10 226 -2 234 -18 12 -1004 10 -1016 -2z"/>
<path d="M4216 4841 c-6 -12 -1 -1186 6 -1196 4 -6 184 -10 510 -9 501 0 503
1 553 23 59 27 100 72 125 138 14 38 18 79 18 198 1 134 -2 154 -21 187 -11
21 -29 40 -39 44 -24 7 -23 18 6 33 44 24 55 66 54 219 0 160 -11 222 -47 260
-13 15 -23 28 -20 29 8 3 -51 44 -88 60 -34 15 -93 17 -546 18 -279 1 -509 -1
-511 -4z m949 -250 c6 -1 10 -44 10 -111 0 -104 -1 -110 -20 -111 -24 0 -642
0 -667 1 -16 0 -18 12 -18 109 0 95 2 110 17 113 13 2 639 1 678 -1z m11 -586
c0 -60 -4 -112 -7 -115 -6 -4 -664 -5 -691 -1 -5 1 -8 50 -8 110 0 95 2 110
17 113 9 2 168 3 353 3 l336 0 0 -110z"/>
<path d="M2899 3208 c-4 -8 -6 -235 -2 -243 2 -7 152 -11 461 -10 251 0 465
-2 476 -5 19 -6 19 -8 17 -180 l-1 -40 -477 -2 -478 -3 -1 -122 c0 -68 2 -124
5 -124 3 -1 216 -2 473 -3 256 0 470 -4 474 -8 8 -8 7 -208 -1 -216 -10 -10
-505 -7 -505 3 0 7 -3 7 -8 0 -4 -6 -55 -10 -117 -10 -62 0 -113 4 -117 10 -5
7 -8 7 -8 0 0 -6 -37 -9 -95 -8 -52 0 -96 -2 -96 -5 -8 -32 -3 -234 5 -239 5
-4 233 -6 507 -6 l497 0 57 27 c61 30 117 95 131 151 4 16 8 98 9 180 2 134 0
154 -18 188 -12 20 -23 37 -26 37 -3 0 -13 4 -21 10 -12 7 -9 14 16 37 17 15
35 39 40 53 6 14 10 95 9 180 -1 141 -3 160 -24 203 -29 60 -72 100 -134 126
-46 19 -71 20 -547 21 -275 0 -501 -1 -501 -2z"/>
<path d="M3485 1432 c-6 -4 -19 -26 -29 -49 -11 -24 -23 -43 -28 -43 -5 0 -7
-3 -4 -8 2 -4 -8 -26 -24 -48 -15 -23 -31 -51 -35 -63 -3 -11 -11 -21 -16 -21
-5 0 -9 -6 -9 -14 0 -8 -7 -22 -16 -30 -8 -9 -12 -16 -8 -16 4 0 1 -8 -7 -17
-8 -10 -20 -29 -27 -42 -15 -26 -37 -64 -75 -130 -14 -25 -24 -48 -21 -53 3
-4 145 -8 316 -8 l310 0 -7 27 c-3 15 -10 30 -14 33 -7 5 -22 29 -53 90 -7 14
-15 27 -18 30 -3 3 -11 16 -18 29 -8 13 -22 38 -31 55 -10 17 -33 58 -51 91
-19 33 -39 63 -44 67 -6 4 -7 8 -2 8 5 0 2 8 -6 18 -8 9 -26 36 -38 60 -25 44
-28 47 -45 34z"/>
</g>
</svg>
