<svg width="300" height="132" viewBox="0 0 300 132" fill="none" xmlns="http://www.w3.org/2000/svg">
<path d="M286.684 101.902L285.744 109.385L283.412 127.973H236.556C236.922 123.807 237.422 117.81 237.957 111.337C238.009 110.69 238.065 110.04 238.117 109.385C239.457 93.1132 240.923 74.6995 240.923 74.6995L247.083 75.8471L259.035 78.0695L263.905 78.9747L276.946 81.4032C283.448 82.6113 287.921 92.0263 286.684 101.902V101.902Z" fill="#F0F0F2"/>
<path d="M251.242 44.588L257.004 54.6715L245.929 62.5203L241.205 50.1258L251.242 44.588Z" fill="#FFB6B6"/>
<path d="M243.906 54.1274C251.79 54.1274 258.181 47.7363 258.181 39.8525C258.181 31.9686 251.79 25.5775 243.906 25.5775C236.023 25.5775 229.632 31.9686 229.632 39.8525C229.632 47.7363 236.023 54.1274 243.906 54.1274Z" fill="#FFB6B6"/>
<path d="M242.881 43.0438C241.748 41.3187 242.193 40.4164 241.244 39.7824C241.244 39.7824 240.862 39.5273 238.129 39.3819C237.518 34.978 236.754 34.444 236.754 34.444C235.873 33.8285 234.567 34.0285 233.754 34.4049C232.035 35.2011 232.235 36.9209 231.077 37.25C229.479 37.7047 226.57 35.1417 226.283 32.2076C226.049 29.8142 227.591 27.4896 228.203 27.6126C228.809 27.7345 230.261 25.881 231.045 25.9096C231.58 25.9291 233.768 24.9784 234.356 25.0527C234.999 25.1339 237.117 26.2396 237.206 25.987C237.819 24.2315 237.639 23.7445 238.16 23.2423C239.082 22.3524 240.591 22.9721 242.959 23.3048C247.83 23.9893 248.68 22.3831 251.176 23.4718C252.437 24.0217 253.492 25.5049 255.551 28.4488C258.43 32.5657 259.87 34.6242 259.879 37.0251C259.889 39.4736 258.703 39.3182 258.182 42.943C257.603 46.9781 258.834 48.8231 257.489 50.134C256.449 51.1472 254.335 51.3877 253.224 50.4985C251.322 48.9761 253.811 45.3026 251.707 42.6187C250.415 40.9712 247.817 40.2382 246.627 41.0526C245.282 41.9734 246.023 44.6761 245.077 44.9324C244.267 45.1519 243.079 43.3444 242.882 43.0438L242.881 43.0438Z" fill="#2F2E41"/>
<path d="M276.133 99.2664C275.735 106.074 274.154 108.224 273.6 116.264C273.479 118.029 273.406 120.078 273.406 122.521C273.406 123.144 273.409 123.747 273.409 124.335C273.409 125.588 273.385 126.772 273.24 127.973C273.129 128.931 272.939 129.897 272.624 130.915H241.88C241.877 130.908 241.877 130.901 241.873 130.894C241.693 130.112 241.579 129.364 241.493 128.648C241.465 128.419 241.44 128.194 241.42 127.973C241.392 127.713 241.368 127.457 241.344 127.204C241.25 126.197 241.157 125.245 240.935 124.335C240.638 123.079 240.098 121.895 238.99 120.753C238.537 120.286 238.084 119.922 237.641 119.604C237.554 119.545 237.471 119.486 237.384 119.427C236.159 118.586 235 117.98 233.996 116.264C233.979 116.24 233.965 116.212 233.951 116.188C233.778 115.887 233.328 115.097 233.003 114.045C232.66 112.952 232.452 111.577 232.826 110.172C233.716 106.843 237.011 106.51 239.703 103.146C239.994 102.783 240.281 102.381 240.555 101.935C241.773 99.955 242.102 98.2108 242.489 96.1375C242.551 95.8017 242.607 95.4695 242.652 95.1477C242.687 94.9053 242.718 94.6665 242.742 94.4311C242.956 92.4549 242.853 90.752 242.6 89.2292C241.776 84.2417 239.347 81.1544 241.063 76.6792C241.603 75.2741 242.368 74.2184 243.14 73.3151C244.773 71.401 246.452 70.1585 246.161 67.6874C245.867 65.1954 243.977 64.8526 243.766 62.6756C243.659 61.5751 244.019 60.4156 244.694 59.2769V59.2735C246.854 55.6081 252.246 52.2335 255.672 52.3408C256.305 52.3582 256.866 52.5 257.333 52.7734C259.026 53.7702 258.32 55.9472 260.912 59C262.84 61.267 265.02 62.1738 265.847 62.6029C269.125 64.3128 271.79 69.3556 273.6 75.8036C273.614 75.8521 273.627 75.9004 273.641 75.9525C274.759 79.9915 275.549 84.5775 275.94 89.2292C276.106 91.1985 276.203 93.1783 276.223 95.1372C276.241 96.7016 276.206 98.0585 276.133 99.2664V99.2664Z" fill="url(#paint0_linear_743_52)"/>
<path d="M253.111 122.591L252.485 124.335L252.09 125.429L251.176 127.973L250.117 130.915H243.31L244.452 127.973L244.981 126.602L245.86 124.335L247.335 120.528L253.111 122.591Z" fill="#FFB6B6"/>
<path d="M273.707 75.2082C273.69 75.4333 273.666 75.6824 273.641 75.9525C273.372 78.7006 272.735 83.6188 271.804 89.2292C271.312 92.1883 270.738 95.3415 270.091 98.4738C268.699 105.233 266.969 111.889 265.013 116.264C264.664 117.053 264.304 117.766 263.937 118.396C263.657 118.877 263.362 119.351 263.054 119.818C262.058 121.352 260.94 122.805 259.78 124.162C259.735 124.221 259.683 124.276 259.632 124.335C259.445 124.557 259.251 124.775 259.057 124.993C258.109 126.062 257.14 127.059 256.202 127.973C255.06 129.087 253.959 130.074 252.973 130.915H241.918L241.873 130.894L240.281 130.188C240.281 130.188 240.734 129.655 241.493 128.648C241.648 128.443 241.814 128.218 241.994 127.973C242.216 127.671 242.455 127.339 242.711 126.979C243.244 126.225 243.849 125.339 244.5 124.335C245.76 122.393 247.196 120.005 248.646 117.24C248.813 116.918 248.982 116.593 249.152 116.264C249.155 116.253 249.162 116.243 249.166 116.233C249.453 115.672 249.737 115.094 250.02 114.505C252.426 109.501 253.115 105.347 253.312 104.001C253.589 102.098 253.973 99.4359 253.869 96.5078C253.8 94.5766 253.519 92.5345 252.852 90.5063V90.5029C252.713 90.0772 252.557 89.6515 252.381 89.2292C252.066 88.4712 251.692 87.7236 251.249 86.9864C249.294 83.7399 247.705 83.6049 246.442 80.0676C246.068 79.0189 245.22 76.6516 245.479 74.1526V74.1492C245.511 73.8412 245.563 73.5297 245.632 73.2181V73.2147C245.649 73.1282 245.673 73.0383 245.698 72.9517C245.895 72.1868 246.22 71.4287 246.715 70.7088C247.681 69.3106 248.999 68.4798 250.179 67.985L250.183 67.9815C251.547 67.414 252.723 67.2928 252.952 67.272C258.008 66.8221 261.93 71.0723 264.072 73.3947C264.899 74.291 265.657 75.0422 266.349 75.6547C271.738 80.4657 273.216 77.3922 273.6 75.8036C273.659 75.5579 273.69 75.3468 273.707 75.2082V75.2082Z" fill="url(#paint1_linear_743_52)"/>
<path d="M273.724 75.0284C273.724 75.0456 273.721 75.1044 273.707 75.2014C273.714 75.1494 273.718 75.0975 273.721 75.049C273.721 75.0387 273.721 75.0318 273.724 75.0284V75.0284Z" fill="url(#paint2_linear_743_52)"/>
<path d="M81.3569 45.2516L93.0493 40.3307L98.0644 50.612L85.7774 55.6273L81.3569 45.2516Z" fill="#FFB6B6"/>
<path opacity="0.1" d="M81.3569 45.2516L93.0493 40.3307L98.0644 50.612L85.7774 55.6273L81.3569 45.2516Z" fill="black"/>
<path d="M83.019 41.3337L94.5538 54.6242C94.5538 54.6242 86.5296 79.9514 78.5054 82.2083C70.4813 84.4652 55.6867 95.4988 55.6867 95.4988L37.1309 83.4621L46.158 70.1716C46.158 70.1716 67.9737 40.3306 73.7411 40.3306C79.5085 40.3306 83.019 41.3337 83.019 41.3337V41.3337Z" fill="url(#paint3_linear_743_52)"/>
<path d="M67.4346 127.973H40.5838L38.8862 125.703L31.9553 116.438L30.3605 114.306C30.3605 114.306 24.3424 103.272 25.5962 93.2419C26.8499 83.2113 39.8892 80.9545 39.8892 80.9545H40.4258L56.3889 94.9822L55.436 108.037L60.4912 116.438L67.4346 127.973V127.973Z" fill="#2F2E41"/>
<path d="M46.0829 127.973H38.8862V117.315L46.0829 127.973Z" fill="#2F2E41"/>
<path d="M201.305 111.793L200.41 116.438L198.188 127.973H153.556C153.905 125.387 154.381 121.666 154.89 117.649C154.94 117.248 154.993 116.844 155.043 116.438C156.319 106.339 157.716 94.912 157.716 94.912L163.584 95.6242L174.968 97.0034L179.607 97.5651L192.029 99.0722C198.223 99.822 202.483 105.665 201.305 111.793H201.305Z" fill="#F0F0F2"/>
<path d="M264.468 127.973H240.26C240.628 127.539 240.836 127.288 240.836 127.288L248.093 126.09L263.046 123.622C263.046 123.622 263.728 125.385 264.468 127.973V127.973Z" fill="#2F2E41"/>
<path d="M161.785 50.2672L172.312 65.1561L153.949 65.7046L151.978 51.7125L161.785 50.2672Z" fill="#A0616A"/>
<path opacity="0.1" d="M161.785 50.2672L172.312 65.1561L153.949 65.7046L151.978 51.7125L161.785 50.2672Z" fill="black"/>
<path d="M109.867 81.1159C108.516 77.219 105.411 74.7573 102.931 75.6174C100.451 76.4775 99.5366 80.3333 100.888 84.2314C101.407 85.7959 102.293 87.2135 103.472 88.3655L109.404 104.805L117.058 101.856L110.398 85.9634C110.611 84.3284 110.429 82.6662 109.867 81.1159V81.1159Z" fill="#A0616A"/>
<path d="M181.129 73.5294L181.114 88.7031L179.703 94.3077L176.799 105.835L174.685 116.438L173.11 124.337L172.549 127.158C172.125 127.441 171.703 127.712 171.282 127.973H134.604C132.52 126.721 131.354 125.749 131.354 125.749C131.354 125.749 131.931 125.207 132.591 124.337C133.704 122.867 135.051 120.46 134.226 118.16C134.053 117.679 134.007 117.092 134.06 116.438C134.396 112.119 138.925 104.817 138.925 104.817L137.987 93.9792L137.576 89.2297L140.475 66.0715L149.926 60.5773L151.558 60.4194L167.664 59.5493L174.321 59.9329L174.624 60.0157L181.129 73.5294V73.5294Z" fill="#C9CACD"/>
<path d="M181.844 127.973H173.82L173.467 124.337L173.459 124.264L175.731 124.109L181.641 123.705L181.744 125.881L181.824 127.552L181.844 127.973Z" fill="#FFB6B6"/>
<path d="M183.82 77.1981L187.19 96.9758L184.439 116.438L184.011 119.467L183.253 124.816L183.02 126.461L183.028 126.639L183.085 127.973H173.557L173.206 124.337L173.176 124.011L172.458 116.563L172.446 116.438L170.924 100.645L173.908 89.2297L174.128 88.3896V88.3872L175.427 68.8426L174.421 59.9605L174.411 59.8777C174.431 59.8903 174.449 59.9028 174.469 59.9154C174.522 59.948 174.574 59.9806 174.624 60.0157C180.482 63.732 183.973 70.2519 183.82 77.1981V77.1981Z" fill="#C9CACD"/>
<path d="M143.889 69.8613L140.225 66.0712C140.225 66.0712 132.381 69.6076 131.99 71.5696C131.599 73.5315 117.749 102.348 117.749 102.348L111.724 86.2539L103.88 91.4907C103.88 91.4907 110.174 116.477 116.059 117.65C121.945 118.823 141.671 88.0763 141.671 88.0763L143.889 69.8613H143.889Z" fill="#C9CACD"/>
<path d="M292.673 116.264H7.32346C3.28454 116.264 0 119.552 0 123.591C0 127.63 3.28454 130.915 7.32346 130.915H292.673C296.712 130.915 300 127.63 300 123.591C300 119.552 296.712 116.264 292.673 116.264Z" fill="#E6E6E6"/>
<path d="M179.459 93.937L178.904 119.827C178.85 122.333 176.803 124.337 174.297 124.337H126.673C124.225 124.337 122.205 122.424 122.071 119.98L120.656 94.0898C120.512 91.4497 122.613 89.2297 125.257 89.2297H174.851C177.435 89.2297 179.514 91.3537 179.459 93.937V93.937Z" fill="#3F3D56"/>
<path d="M102.578 51.5011C108.871 51.5011 113.972 46.3996 113.972 40.1065C113.972 33.8135 108.871 28.712 102.578 28.712C96.2849 28.712 91.1836 33.8135 91.1836 40.1065C91.1836 46.3996 96.2849 51.5011 102.578 51.5011Z" fill="#FFB6B6"/>
<path d="M83.5204 69.9208L84.7742 83.4621L93.2999 117.817L85.9343 120.399L73.4902 82.9606L71.7715 67.9147L83.5204 69.9208Z" fill="#FFB6B6"/>
<path d="M80.1291 93.937L79.5743 119.827C79.5206 122.333 77.4737 124.337 74.967 124.337H27.3432C24.8958 124.337 22.8752 122.424 22.7416 119.98L21.3263 94.0898C21.182 91.4497 23.2839 89.2297 25.9279 89.2297H75.5217C78.1055 89.2297 80.1844 91.3537 80.1291 93.937V93.937Z" fill="#3F3D56"/>
<path d="M94.6572 124.512C99.6269 124.512 103.656 122.73 103.656 120.531C103.656 118.333 99.6269 116.551 94.6572 116.551C89.6875 116.551 85.6587 118.333 85.6587 120.531C85.6587 122.73 89.6875 124.512 94.6572 124.512Z" fill="#FFB6B6"/>
<path d="M65.8423 71.9912L70.9828 44.5937C70.9828 44.5937 85.2758 42.5876 85.7773 47.3521C86.2788 52.1166 85.4189 75.4015 85.4189 75.4015L65.8423 71.9912V71.9912Z" fill="url(#paint4_linear_743_52)"/>
<path d="M97.9785 41.8982C97.9785 41.8982 105.027 39.3825 108 38.029C110.973 36.6754 116.88 46.1163 117.011 41.1303C117.143 36.1442 115.102 34.0533 115.102 34.0533C115.102 34.0533 114.592 23.1456 103.603 24.5093C103.603 24.5093 106.02 19.0521 98.0861 18.2083C90.152 17.3644 77.8086 36.5247 78.914 39.3881C80.0194 42.2515 81.3446 44.6188 78.2083 47.6804C75.0721 50.742 69.1993 68.021 73.6676 72.6706C78.1358 77.3203 78.429 79.3379 75.3676 82.2306C72.3061 85.1233 65.0697 91.413 72.8939 92.5049C80.7182 93.5968 72.1781 92.7813 78.0112 87.6503C83.8443 82.5193 92.356 82.7288 89.1778 74.4965C85.9997 66.2642 91.5213 54.4674 90.8304 52.6778C90.1395 50.8882 92.3783 39.5239 92.3783 39.5239C92.3783 39.5239 97.5888 38.7584 97.9785 41.8982V41.8982Z" fill="#2F2E41"/>
<path d="M156.155 55.6562C163.005 55.6562 168.559 50.1028 168.559 43.2524C168.559 36.402 163.005 30.8486 156.155 30.8486C149.305 30.8486 143.752 36.402 143.752 43.2524C143.752 50.1028 149.305 55.6562 156.155 55.6562Z" fill="#A0616A"/>
<path d="M157.145 26.5764C156.786 26.7859 156.306 26.4689 156.191 26.0696C156.076 25.6702 156.21 25.2463 156.343 24.8525L157.012 22.8703C157.486 21.4644 157.99 20.0095 159.018 18.9395C160.57 17.3244 163.035 16.9136 165.255 17.2112C168.105 17.5935 170.918 19.137 172.243 21.6894C173.568 24.2418 173.004 27.8034 170.609 29.3958C174.022 33.308 175.212 37.6681 175.024 42.8566C174.837 48.0451 169.183 52.8202 165.495 56.4753C164.672 55.9761 163.923 53.6369 164.376 52.7871C164.829 51.9373 164.18 50.9527 164.741 50.17C165.302 49.3872 165.771 50.6336 165.204 49.8553C164.846 49.3642 166.243 48.2343 165.711 47.9403C163.139 46.5185 162.283 43.3125 160.668 40.8573C158.719 37.896 155.385 35.8905 151.855 35.5578C149.911 35.3745 147.858 35.7065 146.264 36.8352C144.671 37.9638 143.639 39.9808 144.009 41.8983C143.052 40.9266 142.575 39.5025 142.755 38.1505C142.935 36.7985 143.767 35.5483 144.944 34.8603C144.228 32.4924 144.842 29.7687 146.503 27.9363C148.165 26.104 154.907 26.4161 157.333 26.8983L157.145 26.5764V26.5764Z" fill="#2F2E41"/>
<path d="M157.522 35.6297C160.735 35.9766 163.056 38.7603 165.015 41.331C166.144 42.8127 167.327 44.449 167.299 46.3118C167.27 48.1951 166.011 49.8105 165.409 51.5953C164.425 54.5126 165.384 57.9836 167.726 59.9825C165.412 60.4215 162.911 58.6868 162.511 56.3659C162.047 53.6642 164.095 51.0566 163.852 48.3259C163.638 45.9201 161.742 44.0686 160.131 42.2698C158.519 40.4709 157.005 38.084 157.747 35.7854L157.522 35.6297V35.6297Z" fill="#2F2E41"/>
<path d="M205.563 117.832C202.38 119.642 200.734 122.752 201.887 124.778C203.039 126.803 206.553 126.977 209.737 125.165C211.019 124.459 212.113 123.456 212.928 122.241L226.317 114.399L222.504 108.194L209.709 116.583C208.247 116.662 206.826 117.09 205.563 117.832Z" fill="#FFB6B6"/>
<path d="M250.898 60.3302C250.498 60.1716 246.987 58.842 243.782 60.5974C240.1 62.614 239.531 67.2173 239.332 68.8318C238.871 72.5615 240.228 73.3975 240.515 77.1733C241.051 84.2375 242.464 76.1786 240.207 79.4031C239.425 80.5192 231.445 97.8155 227.043 101.203C218.483 107.792 213.047 112.433 213.047 112.433L219.253 119.174C219.253 119.174 229.059 116.561 237.726 110.933C246.617 105.16 251.062 102.273 254.501 96.6265C254.798 96.1402 261.884 84.1057 258.078 70.7983C257.21 67.7629 255.62 62.2014 250.898 60.3302V60.3302Z" fill="url(#paint5_linear_743_52)"/>
<path d="M282.942 93.937L282.387 119.827C282.333 122.333 280.286 124.337 277.779 124.337H230.156C227.708 124.337 225.688 122.424 225.554 119.98L224.139 94.0898C223.995 91.4497 226.096 89.2297 228.74 89.2297H278.334C280.918 89.2297 282.997 91.3537 282.942 93.937V93.937Z" fill="#3F3D56"/>
<defs>
<linearGradient id="paint0_linear_743_52" x1="203.705" y1="61.5357" x2="253.489" y2="34.547" gradientUnits="userSpaceOnUse">
<stop stop-color="#9200FF"/>
<stop offset="1" stop-color="#B754FF"/>
</linearGradient>
<linearGradient id="paint1_linear_743_52" x1="218.108" y1="74.6922" x2="257.207" y2="54.6394" gradientUnits="userSpaceOnUse">
<stop stop-color="#9200FF"/>
<stop offset="1" stop-color="#B754FF"/>
</linearGradient>
<linearGradient id="paint2_linear_743_52" x1="273.696" y1="75.0486" x2="273.721" y2="75.0462" gradientUnits="userSpaceOnUse">
<stop stop-color="#9200FF"/>
<stop offset="1" stop-color="#B754FF"/>
</linearGradient>
<linearGradient id="paint3_linear_743_52" x1="-0.96076" y1="46.7881" x2="40.7455" y2="4.37573" gradientUnits="userSpaceOnUse">
<stop stop-color="#9200FF"/>
<stop offset="1" stop-color="#B754FF"/>
</linearGradient>
<linearGradient id="paint4_linear_743_52" x1="52.5142" y1="47.8296" x2="73.7906" y2="34.4548" gradientUnits="userSpaceOnUse">
<stop stop-color="#9200FF"/>
<stop offset="1" stop-color="#B754FF"/>
</linearGradient>
<linearGradient id="paint5_linear_743_52" x1="182.433" y1="66.6604" x2="225.731" y2="33.8349" gradientUnits="userSpaceOnUse">
<stop stop-color="#9200FF"/>
<stop offset="1" stop-color="#B754FF"/>
</linearGradient>
</defs>
</svg>
