<svg width="300" height="274" viewBox="0 0 300 274" fill="none" xmlns="http://www.w3.org/2000/svg">
<g clip-path="url(#clip0_743_96)">
<path d="M183.023 182.128H116.978C116.747 182.128 116.525 182.036 116.362 181.872C116.199 181.709 116.107 181.488 116.106 181.257V108.63C116.107 108.399 116.199 108.178 116.362 108.015C116.525 107.852 116.747 107.76 116.978 107.759H183.023C183.254 107.76 183.475 107.852 183.638 108.015C183.802 108.178 183.894 108.399 183.894 108.63V181.257C183.894 181.488 183.802 181.709 183.638 181.872C183.475 182.036 183.254 182.128 183.023 182.128V182.128Z" fill="white"/>
<path d="M183.023 182.128H116.978C116.747 182.128 116.525 182.036 116.362 181.872C116.199 181.709 116.107 181.488 116.106 181.257V108.63C116.107 108.399 116.199 108.178 116.362 108.015C116.525 107.852 116.747 107.76 116.978 107.759H183.023C183.254 107.76 183.475 107.852 183.638 108.015C183.802 108.178 183.894 108.399 183.894 108.63V181.257C183.894 181.488 183.802 181.709 183.638 181.872C183.475 182.036 183.254 182.128 183.023 182.128V182.128ZM116.978 108.108C116.839 108.108 116.706 108.163 116.608 108.261C116.51 108.359 116.455 108.492 116.455 108.63V181.257C116.455 181.395 116.51 181.528 116.608 181.626C116.706 181.724 116.839 181.779 116.978 181.779H183.023C183.161 181.779 183.294 181.724 183.392 181.626C183.49 181.528 183.545 181.395 183.545 181.257V108.63C183.545 108.492 183.49 108.359 183.392 108.261C183.294 108.163 183.161 108.108 183.023 108.108H116.978Z" fill="#3F3D56"/>
<path d="M145.469 135.452H129.089C128.858 135.451 128.636 135.36 128.473 135.196C128.309 135.033 128.218 134.812 128.217 134.581V118.209C128.218 117.978 128.309 117.757 128.473 117.594C128.636 117.431 128.858 117.339 129.089 117.339H145.469C145.7 117.339 145.922 117.431 146.085 117.594C146.248 117.757 146.34 117.978 146.34 118.209V134.581C146.34 134.812 146.248 135.033 146.085 135.196C145.922 135.36 145.7 135.451 145.469 135.452ZM129.089 117.687C128.95 117.687 128.817 117.742 128.719 117.84C128.621 117.938 128.566 118.071 128.566 118.209V134.581C128.566 134.719 128.621 134.852 128.719 134.95C128.817 135.048 128.95 135.103 129.089 135.103H145.469C145.608 135.103 145.741 135.048 145.839 134.95C145.937 134.852 145.992 134.719 145.992 134.581V118.209C145.992 118.071 145.937 117.938 145.839 117.84C145.741 117.742 145.608 117.687 145.469 117.687H129.089Z" fill="#F2F2F2"/>
<path d="M140.764 137.455H124.384C124.176 137.454 123.977 137.372 123.83 137.225C123.683 137.078 123.6 136.879 123.6 136.671V120.299C123.6 120.092 123.683 119.892 123.83 119.745C123.977 119.598 124.176 119.516 124.384 119.516H140.764C140.972 119.516 141.172 119.598 141.319 119.745C141.466 119.892 141.548 120.092 141.548 120.299V136.671C141.548 136.879 141.466 137.078 141.319 137.225C141.172 137.372 140.972 137.454 140.764 137.455Z" fill="url(#paint0_linear_743_96)"/>
<path d="M175.616 145.466H124.383C124.28 145.466 124.178 145.446 124.083 145.407C123.988 145.368 123.901 145.31 123.828 145.237C123.755 145.164 123.697 145.078 123.657 144.983C123.618 144.887 123.598 144.785 123.598 144.682C123.598 144.579 123.618 144.477 123.657 144.382C123.697 144.287 123.755 144.2 123.828 144.128C123.901 144.055 123.988 143.997 124.083 143.958C124.178 143.919 124.28 143.898 124.383 143.899H175.616C175.824 143.899 176.024 143.981 176.171 144.128C176.318 144.275 176.4 144.474 176.4 144.682C176.4 144.89 176.318 145.09 176.171 145.237C176.024 145.384 175.824 145.466 175.616 145.466V145.466Z" fill="#74767B"/>
<path d="M163.244 150.865H124.383C124.28 150.865 124.178 150.845 124.083 150.806C123.988 150.767 123.901 150.709 123.828 150.636C123.755 150.563 123.697 150.477 123.657 150.382C123.618 150.287 123.598 150.185 123.598 150.081C123.598 149.978 123.618 149.876 123.657 149.781C123.697 149.686 123.755 149.6 123.828 149.527C123.901 149.454 123.988 149.396 124.083 149.357C124.178 149.318 124.28 149.298 124.383 149.298H163.244C163.452 149.298 163.651 149.38 163.798 149.527C163.945 149.674 164.028 149.874 164.028 150.081C164.028 150.289 163.945 150.489 163.798 150.636C163.651 150.783 163.452 150.865 163.244 150.865V150.865Z" fill="#74767B"/>
<path d="M175.442 125.611H152.788C152.58 125.611 152.381 125.529 152.234 125.382C152.087 125.235 152.004 125.035 152.004 124.828C152.004 124.62 152.087 124.42 152.234 124.273C152.381 124.126 152.58 124.044 152.788 124.044H175.442C175.545 124.044 175.647 124.064 175.743 124.103C175.838 124.142 175.925 124.2 175.998 124.273C176.071 124.346 176.128 124.432 176.168 124.527C176.207 124.623 176.228 124.725 176.228 124.828C176.228 124.931 176.207 125.033 176.168 125.128C176.128 125.223 176.071 125.31 175.998 125.382C175.925 125.455 175.838 125.513 175.743 125.552C175.647 125.591 175.545 125.612 175.442 125.611V125.611Z" fill="url(#paint1_linear_743_96)"/>
<path d="M169.788 131.01H152.788C152.58 131.01 152.381 130.928 152.234 130.781C152.087 130.634 152.004 130.435 152.004 130.227C152.004 130.019 152.087 129.82 152.234 129.673C152.381 129.526 152.58 129.443 152.788 129.443H169.788C169.996 129.443 170.196 129.526 170.343 129.673C170.49 129.82 170.573 130.019 170.573 130.227C170.573 130.435 170.49 130.634 170.343 130.781C170.196 130.928 169.996 131.01 169.788 131.01V131.01Z" fill="url(#paint2_linear_743_96)"/>
<path d="M175.616 156.264H124.384C124.176 156.264 123.976 156.182 123.829 156.035C123.682 155.888 123.6 155.688 123.6 155.481C123.6 155.273 123.682 155.073 123.829 154.926C123.976 154.779 124.176 154.697 124.384 154.697H175.616C175.72 154.697 175.822 154.717 175.917 154.756C176.012 154.795 176.099 154.853 176.172 154.926C176.245 154.999 176.303 155.085 176.342 155.18C176.382 155.275 176.402 155.378 176.402 155.481C176.402 155.584 176.382 155.686 176.342 155.781C176.303 155.876 176.245 155.963 176.172 156.035C176.099 156.108 176.012 156.166 175.917 156.205C175.822 156.244 175.72 156.265 175.616 156.264V156.264Z" fill="#74767B"/>
<path d="M163.244 161.663H124.384C124.176 161.663 123.976 161.581 123.829 161.434C123.682 161.287 123.6 161.088 123.6 160.88C123.6 160.672 123.682 160.472 123.829 160.326C123.976 160.179 124.176 160.096 124.384 160.096H163.244C163.347 160.096 163.449 160.116 163.545 160.155C163.64 160.194 163.727 160.252 163.8 160.325C163.873 160.398 163.93 160.484 163.97 160.579C164.009 160.675 164.03 160.777 164.03 160.88C164.03 160.983 164.009 161.085 163.97 161.18C163.93 161.275 163.873 161.362 163.8 161.434C163.727 161.507 163.64 161.565 163.545 161.604C163.449 161.644 163.347 161.664 163.244 161.663L163.244 161.663Z" fill="#74767B"/>
<path d="M175.616 167.063H124.383C124.28 167.063 124.178 167.043 124.083 167.003C123.988 166.964 123.901 166.906 123.828 166.834C123.755 166.761 123.697 166.674 123.657 166.579C123.618 166.484 123.598 166.382 123.598 166.279C123.598 166.176 123.618 166.074 123.657 165.978C123.697 165.883 123.755 165.797 123.828 165.724C123.901 165.651 123.988 165.594 124.083 165.554C124.178 165.515 124.28 165.495 124.383 165.495H175.616C175.824 165.495 176.024 165.578 176.171 165.725C176.318 165.872 176.4 166.071 176.4 166.279C176.4 166.487 176.318 166.686 176.171 166.833C176.024 166.98 175.824 167.063 175.616 167.063V167.063Z" fill="#74767B"/>
<path d="M175.616 172.462H124.384C124.176 172.462 123.976 172.379 123.829 172.232C123.682 172.085 123.6 171.886 123.6 171.678C123.6 171.47 123.682 171.271 123.829 171.124C123.976 170.977 124.176 170.894 124.384 170.894H175.616C175.824 170.894 176.024 170.977 176.171 171.124C176.318 171.271 176.401 171.47 176.401 171.678C176.401 171.886 176.318 172.085 176.171 172.232C176.024 172.379 175.824 172.462 175.616 172.462V172.462Z" fill="#74767B"/>
<path d="M102.335 214.3C102.337 224.532 99.2559 234.526 93.4932 242.983C87.7305 251.439 79.5533 257.965 70.0268 261.71C69.2795 262.01 68.5185 262.288 67.754 262.546C66.8999 262.839 66.0367 263.107 65.1644 263.352C64.5583 263.521 63.9465 263.679 63.3289 263.827C54.0325 266.053 44.2984 265.638 35.2254 262.629C34.5125 262.392 33.8066 262.137 33.1075 261.872C32.1674 261.511 31.2376 261.122 30.3251 260.705C30.2562 260.678 30.1908 260.647 30.1253 260.616C29.7672 260.45 29.4194 260.285 29.0647 260.11H29.0613C28.5757 259.876 28.0947 259.632 27.6184 259.38C26.5233 258.802 25.4523 258.186 24.4055 257.532C23.8614 257.195 23.3253 256.845 22.7973 256.482C14.4866 250.874 8.01663 242.94 4.198 233.673C0.379378 224.406 -0.618052 214.219 1.33069 204.388C3.27943 194.557 8.08766 185.52 15.1529 178.408C22.2182 171.296 31.2263 166.426 41.0486 164.409C41.9474 164.223 42.8553 164.062 43.7725 163.927C44.3476 163.838 44.9296 163.762 45.5115 163.696C45.9282 163.648 46.3449 163.603 46.7685 163.569H46.7719C47.9049 163.466 49.0482 163.402 50.2018 163.376C50.3602 163.373 50.5186 163.369 50.6804 163.366C50.77 163.366 50.8595 163.363 50.949 163.366H50.9525C51.0902 163.363 51.228 163.363 51.3692 163.363C51.9477 163.363 52.5262 163.373 53.1013 163.394C54.3686 163.435 55.6221 163.522 56.8618 163.655C57.578 163.731 58.284 163.824 58.9899 163.927C59.0691 163.941 59.1518 163.951 59.231 163.965C59.4652 164.003 59.7028 164.041 59.9369 164.082C60.4328 164.161 60.9253 164.254 61.4177 164.354C61.8791 164.447 62.3372 164.543 62.7952 164.646C64.4879 165.032 66.1592 165.507 67.8022 166.068C78.9372 169.872 88.4174 177.401 94.6419 187.382C94.8175 187.661 94.9897 187.943 95.1585 188.229C95.2893 188.442 95.4133 188.656 95.5373 188.873C95.582 188.945 95.6234 189.017 95.6612 189.09C95.6888 189.131 95.7094 189.172 95.7335 189.213C95.9608 189.609 96.1812 190.012 96.3947 190.415C100.307 197.768 102.347 205.972 102.335 214.3V214.3Z" fill="white"/>
<path d="M51.3746 265.584C45.8495 265.584 40.3604 264.696 35.117 262.956C34.4409 262.731 33.7439 262.481 32.9855 262.194C32.0287 261.826 31.086 261.431 30.1821 261.018C30.1219 260.995 30.0504 260.961 29.979 260.927C29.6362 260.769 29.301 260.61 28.9602 260.442L28.9118 260.42C28.4282 260.187 27.9389 259.939 27.4572 259.684C26.3604 259.105 25.2721 258.479 24.223 257.824C23.677 257.485 23.1315 257.129 22.6023 256.766C14.236 251.12 7.72282 243.131 3.87888 233.802C0.0349369 224.473 -0.968845 214.217 0.993292 204.32C2.95543 194.423 7.79622 185.324 14.9092 178.165C22.0221 171.005 31.0909 166.103 40.9793 164.072C41.8809 163.885 42.8039 163.722 43.7222 163.587C44.2662 163.502 44.8562 163.424 45.4731 163.354C45.8925 163.306 46.3131 163.261 46.7406 163.226C47.8754 163.123 49.0373 163.058 50.1942 163.032L50.7657 163.021C50.8311 163.02 50.8966 163.02 50.962 163.022C51.0846 163.019 51.2251 163.019 51.3692 163.019C51.9518 163.019 52.5388 163.029 53.1137 163.05C54.3839 163.091 55.6577 163.18 56.8986 163.313C57.5557 163.382 58.2562 163.472 59.0398 163.587L59.3709 163.639C59.5791 163.672 59.7893 163.706 59.9969 163.743C60.4434 163.814 60.9184 163.902 61.4862 164.017C61.9498 164.11 62.4104 164.207 62.871 164.311C64.5757 164.7 66.2588 165.178 67.9135 165.742C79.1179 169.583 88.6588 177.16 94.9342 187.201C95.1107 187.481 95.2843 187.765 95.4551 188.054C95.5848 188.266 95.7105 188.482 95.8362 188.702C95.8766 188.767 95.919 188.841 95.9585 188.915C95.9777 188.945 95.9948 188.975 96.0116 189.006L96.0311 189.04C96.2475 189.417 96.4657 189.813 96.6991 190.253C100.087 196.635 102.088 203.66 102.571 210.868C103.054 218.076 102.008 225.305 99.5018 232.081C96.9957 238.857 93.0858 245.028 88.0282 250.189C82.9705 255.35 76.8791 259.385 70.1529 262.03C69.4236 262.323 68.6528 262.606 67.8642 262.873C67.0102 263.165 66.1327 263.438 65.2573 263.683C64.6512 263.852 64.0296 264.013 63.4093 264.162C59.4674 265.106 55.4281 265.583 51.3746 265.584V265.584ZM29.1401 259.766H29.1419L29.2176 259.801C29.5694 259.976 29.9144 260.139 30.2697 260.303C30.3323 260.333 30.3911 260.361 30.4531 260.386C31.3593 260.799 32.289 261.189 33.2312 261.551C33.9793 261.834 34.6678 262.081 35.3344 262.303C44.3459 265.294 54.0151 265.706 63.2487 263.492C63.8609 263.345 64.4744 263.187 65.072 263.02C65.9342 262.779 66.7992 262.51 67.6424 262.221C68.4204 261.958 69.179 261.679 69.8986 261.391C79.3842 257.705 87.5288 251.231 93.2581 242.824C98.9874 234.417 102.032 224.472 101.991 214.3V214.3C101.996 206.029 99.9699 197.883 96.0907 190.576C95.8608 190.143 95.6463 189.753 95.4349 189.385L95.4095 189.34C95.3986 189.32 95.388 189.3 95.375 189.281L95.3562 189.249C95.3221 189.184 95.2848 189.119 95.2445 189.054C95.1161 188.83 94.9939 188.619 94.865 188.409C94.6949 188.121 94.5245 187.842 94.3506 187.566C88.1592 177.659 78.7457 170.183 67.6908 166.394C66.0592 165.837 64.3995 165.366 62.7186 164.982C62.264 164.879 61.8085 164.784 61.3497 164.691C60.7912 164.578 60.3251 164.493 59.8827 164.422C59.6729 164.385 59.4661 164.352 59.2612 164.318L58.9309 164.266C58.1657 164.154 57.474 164.066 56.8255 163.997C55.601 163.866 54.3444 163.778 53.0901 163.738C52.5222 163.717 51.9436 163.707 51.3692 163.707C51.2291 163.707 51.0959 163.707 50.9609 163.71C50.8823 163.708 50.8282 163.709 50.7743 163.709L50.2091 163.721C49.0682 163.746 47.9222 163.81 46.8032 163.912L46.7685 163.913C46.3768 163.946 45.964 163.991 45.5512 164.038C44.9427 164.107 44.3625 164.184 43.8255 164.267C42.9175 164.401 42.0076 164.562 41.1183 164.746C31.3624 166.75 22.4152 171.587 15.3976 178.65C8.37996 185.714 3.60416 194.69 1.66855 204.455C-0.267057 214.219 0.723607 224.338 4.51642 233.542C8.30923 242.746 14.7355 250.627 22.9901 256.197C23.5127 256.556 24.0492 256.906 24.587 257.24C25.6231 257.887 26.6968 258.504 27.7793 259.076C28.2301 259.315 28.6874 259.546 29.1401 259.766Z" fill="#CBCBCB"/>
<path d="M94.9818 203.24C94.4254 203.965 93.7166 204.56 92.9052 204.983C92.0939 205.405 91.1997 205.645 90.2857 205.684C89.3718 205.724 88.4602 205.563 87.6153 205.212C86.7704 204.862 86.0127 204.33 85.3955 203.655L71.9491 208.519L66.999 201.073L86.0845 194.471C87.2876 193.51 88.8017 193.023 90.3398 193.103C91.878 193.184 93.3333 193.825 94.43 194.906C95.5267 195.986 96.1886 197.432 96.2904 198.968C96.3921 200.504 95.9265 202.024 94.9818 203.24V203.24Z" fill="#9F616A"/>
<path d="M52.9653 203.933L80.6673 194.781L85.3355 204.965L59.5082 212.881L52.9653 203.933Z" fill="#74767B"/>
<path d="M63.3291 263.827C54.0327 266.053 44.2986 265.638 35.2256 262.629L35.8454 256.771L36.4205 251.299L45.0468 237.969L47.8121 233.698L59.2071 237.838L60.3676 245.152L62.2168 256.816L63.3291 263.827Z" fill="#2F2E41"/>
<path d="M70.0271 261.71C69.2799 262.01 68.5188 262.288 67.7543 262.547C66.9003 262.839 66.0371 263.108 65.1647 263.352C64.5586 263.521 63.9468 263.679 63.3293 263.827C54.0328 266.053 44.2988 265.638 35.2257 262.629C34.5129 262.392 33.8069 262.137 33.1079 261.872C33.2033 263.91 33.1411 265.952 32.9219 267.981C31.9272 265.604 31.0604 263.175 30.3254 260.705C30.2738 260.54 30.2256 260.375 30.1774 260.21C29.9363 259.377 29.7228 258.582 29.53 257.835C29.3096 256.971 29.1202 256.169 28.9618 255.436C28.3316 252.559 28.1318 250.779 28.1318 250.779L34.8641 236.806L36.2106 236.961L36.7685 237.023L40.1432 237.408L45.047 237.969L52.9914 238.874L60.3677 245.152L66.9761 250.779C66.9761 250.779 67.527 252.652 68.3914 255.753C68.8597 257.418 69.4142 259.439 70.0271 261.71Z" fill="#2F2E41"/>
<path d="M48.6837 168.76C55.2624 168.76 60.5955 163.429 60.5955 156.854C60.5955 150.279 55.2624 144.949 48.6837 144.949C42.105 144.949 36.772 150.279 36.772 156.854C36.772 163.429 42.105 168.76 48.6837 168.76Z" fill="#9F616A"/>
<path d="M56.9751 181.934C56.9751 181.934 54.1122 173.09 47.3794 173.09C45.6962 173.09 42.98 173.229 40.7718 174.669C31.8818 180.467 26.4736 190.322 26.0592 200.924L23.9893 253.885C23.9893 253.885 35.3831 258.026 39.5263 256.474C43.6696 254.921 47.8128 244.568 47.8128 244.568C47.8128 244.568 46.777 258.544 50.9202 258.026C55.0634 257.509 70.6005 256.474 71.1184 254.403C71.6363 252.333 63.1899 207.815 63.1899 207.815L56.9751 181.934Z" fill="#74767B"/>
<path d="M42.8928 160.345C43.9614 160.281 45.0048 160.642 46.066 160.783C49.8627 161.286 53.8124 158.533 54.6507 154.798C54.7179 154.3 54.8662 153.817 55.0898 153.368C55.6741 152.415 57.0049 152.233 58.1019 152.452C59.1989 152.671 60.2388 153.184 61.356 153.243C63.081 153.333 64.7371 152.272 65.6564 150.81C66.5757 149.349 66.836 147.55 66.7119 145.828L65.8849 146.696C65.5489 145.985 65.4192 145.195 65.5105 144.414C65.0723 144.298 64.6114 144.295 64.1721 144.408C63.7328 144.52 63.3297 144.743 63.0013 145.056C62.2722 145.134 62.8225 143.704 62.2808 143.21C62.0173 143.049 61.7033 142.99 61.3991 143.045C59.8479 143.06 58.593 141.875 57.3706 140.92C55.2526 139.27 52.7759 138.141 50.1405 137.624C48.3889 137.282 46.5262 137.227 44.865 137.879C43.5008 138.415 42.3589 139.39 41.3024 140.405C38.7017 142.905 36.3987 145.841 35.3167 149.281C34.4371 152.099 34.4122 155.114 35.2451 157.946C35.681 159.417 36.995 164.453 38.9185 164.57C41.3355 164.718 39.8844 160.524 42.8928 160.345Z" fill="#2F2E41"/>
<path opacity="0.1" d="M47.9224 197.608L35.7247 215.488L31.8237 257.02L47.9224 197.608Z" fill="black"/>
<path d="M99.6187 186.679C99.9106 186.27 100.023 185.85 99.8694 185.74C99.716 185.631 99.3551 185.874 99.0632 186.283C98.7713 186.691 98.659 187.112 98.8124 187.221C98.9659 187.33 99.3268 187.088 99.6187 186.679Z" fill="#3F3D56"/>
<path d="M83.3521 205.942C83.0083 205.697 82.776 205.325 82.7064 204.909C82.6367 204.492 82.7354 204.065 82.9807 203.722V203.722L96.8539 184.288C97.0991 183.945 97.471 183.713 97.8875 183.643C98.3041 183.573 98.7312 183.672 99.075 183.917L83.3521 205.942L83.3521 205.942Z" fill="url(#paint3_linear_743_96)"/>
<path d="M83.9221 207.884L83.1193 207.312C82.9816 207.213 82.8645 207.089 82.7748 206.945C82.6852 206.802 82.6247 206.642 82.5968 206.475C82.5688 206.309 82.5741 206.138 82.6122 205.973C82.6503 205.808 82.7205 205.653 82.8188 205.515L98.6145 183.388C98.7821 183.153 99.0362 182.995 99.3208 182.947C99.6055 182.9 99.8974 182.967 100.132 183.135V183.135L101.098 183.823L83.9221 207.884H83.9221Z" fill="#2F2E41"/>
<path d="M98.1376 185.622L97.0806 187.103L97.4509 187.367L98.5079 185.886L98.1376 185.622Z" fill="#D0CDE1"/>
<path d="M96.684 187.658L95.627 189.139L95.9973 189.403L97.0543 187.922L96.684 187.658Z" fill="#D0CDE1"/>
<path d="M34.5926 270.567C35.127 269.825 35.4921 268.975 35.6622 268.076C35.8323 267.178 35.8032 266.253 35.5771 265.367C35.3509 264.481 34.9331 263.656 34.3531 262.949C33.7732 262.242 33.0451 261.67 32.2203 261.275L32.9929 247.004L24.4302 244.419L23.6223 264.588C23.0494 266.017 23.0209 267.606 23.5421 269.055C24.0633 270.503 25.0981 271.711 26.4503 272.448C27.8025 273.185 29.3783 273.4 30.8789 273.054C32.3796 272.707 33.701 271.822 34.5926 270.567H34.5926Z" fill="#9F616A"/>
<path d="M34.5472 258.829H22.1596L18.751 220.692L18.7627 220.658L30.3571 186.625C30.7654 185.427 31.4188 184.326 32.2758 183.394C33.1329 182.462 34.1747 181.719 35.3351 181.211C36.4954 180.704 37.7488 180.443 39.0153 180.446C40.2819 180.45 41.5339 180.716 42.6917 181.23C43.8495 181.743 44.8876 182.492 45.74 183.428C46.5923 184.364 47.2403 185.468 47.6425 186.668C48.0448 187.869 48.1925 189.139 48.0763 190.4C47.9601 191.66 47.5826 192.883 46.9677 193.99L33.3248 218.545L34.5472 258.829Z" fill="#74767B"/>
<path d="M299.656 93.4415C299.665 103.48 296.71 113.297 291.16 121.663C285.609 130.03 277.712 136.572 268.457 140.471C259.202 144.37 249.001 145.451 239.133 143.58C229.266 141.709 220.171 136.968 212.988 129.952C205.805 122.935 200.854 113.956 198.756 104.139C196.658 94.3228 197.506 84.1056 201.194 74.7687C204.882 65.4318 211.246 57.3907 219.487 51.6535C227.729 45.9162 237.481 42.7381 247.523 42.5176C247.681 42.5141 247.839 42.5107 248.001 42.5072C248.228 42.5038 248.459 42.5038 248.69 42.5038C249.268 42.5038 249.847 42.5141 250.422 42.5348C251.689 42.5761 252.943 42.6633 254.183 42.7963C254.899 42.8721 255.605 42.965 256.311 43.0682C256.39 43.082 256.473 43.0923 256.552 43.1061C259.465 43.5549 262.333 44.2586 265.123 45.209C275.195 48.642 283.94 55.1383 290.132 63.7876C296.325 72.4369 299.655 82.8059 299.656 93.4415Z" fill="white"/>
<path d="M248.642 144.818C220.345 144.819 197.313 121.825 197.286 93.5379C197.274 80.1117 202.525 67.215 211.915 57.6131C221.304 48.0111 234.084 42.4684 247.515 42.1734L247.993 42.163C248.804 42.1514 249.63 42.1618 250.434 42.1907C251.703 42.2322 252.977 42.3208 254.219 42.4542C254.877 42.5236 255.577 42.6132 256.36 42.7278L256.61 42.767C268.705 44.6439 279.729 50.7851 287.687 60.0796C295.646 69.3741 300.013 81.2082 300 93.4415V93.4411C300.026 121.744 277.01 144.791 248.691 144.818L248.642 144.818ZM248.684 42.848C248.457 42.848 248.23 42.848 248.006 42.8513L247.53 42.8617C220.179 43.4624 197.949 66.1955 197.975 93.5373C198.001 121.443 220.727 144.128 248.642 144.13H248.691C276.629 144.103 299.337 121.365 299.311 93.4418V93.4415C299.324 81.3715 295.015 69.6953 287.162 60.5252C279.31 51.3551 268.433 45.2968 256.499 43.4462L256.251 43.4074C255.487 43.2955 254.795 43.2071 254.146 43.1387C252.92 43.0069 251.663 42.9195 250.41 42.8787C249.843 42.8582 249.264 42.848 248.689 42.848H248.684Z" fill="#CBCBCB"/>
<path d="M209.692 96.1911C209.793 96.032 209.531 95.6852 209.106 95.4164C208.681 95.1477 208.256 95.0589 208.155 95.218C208.054 95.3772 208.316 95.724 208.741 95.9927C209.166 96.2614 209.591 96.3503 209.692 96.1911Z" fill="#3F3D56"/>
<path d="M208.203 93.23C208.315 93.0534 208.46 92.9006 208.631 92.7803C208.802 92.6599 208.995 92.5744 209.199 92.5286C209.403 92.4828 209.614 92.4776 209.82 92.5134C210.026 92.5491 210.223 92.625 210.4 92.7369V92.7369L230.58 105.509C230.757 105.621 230.91 105.766 231.03 105.937C231.15 106.108 231.236 106.301 231.282 106.505C231.328 106.709 231.333 106.92 231.297 107.126C231.261 107.331 231.185 107.528 231.073 107.705V107.705L208.203 93.23V93.23Z" fill="url(#paint4_linear_743_96)"/>
<path d="M206.293 93.9056L206.928 92.9036C207.083 92.6599 207.328 92.4875 207.609 92.4243C207.891 92.3611 208.186 92.4123 208.43 92.5666L231.407 107.109C231.55 107.199 231.673 107.317 231.771 107.455C231.868 107.593 231.938 107.75 231.975 107.915C232.012 108.08 232.016 108.25 231.987 108.417C231.958 108.584 231.897 108.743 231.806 108.886L231.278 109.719L206.293 93.9056H206.293Z" fill="#2F2E41"/>
<path d="M209.715 94.456L209.471 94.8401L211.009 95.8133L211.252 95.4291L209.715 94.456Z" fill="#D0CDE1"/>
<path d="M211.828 95.794L211.585 96.1782L213.122 97.1513L213.366 96.7671L211.828 95.794Z" fill="#D0CDE1"/>
<path d="M248.826 47.7474C256.747 47.7474 263.169 41.3292 263.169 33.412C263.169 25.4947 256.747 19.0765 248.826 19.0765C240.904 19.0765 234.482 25.4947 234.482 33.412C234.482 41.3292 240.904 47.7474 248.826 47.7474Z" fill="#FFB8B8"/>
<path d="M262.485 142.493C250.848 145.741 238.437 144.772 227.446 139.757L228.548 110.33L228.63 108.041L228.661 107.298L228.699 106.203L228.727 105.505C228.727 105.505 228.772 105.501 228.858 105.498C229.092 105.481 229.633 105.443 230.407 105.398C231.306 105.346 232.515 105.281 233.923 105.223C234.257 105.209 234.602 105.195 234.956 105.178C242.374 104.902 253.958 104.844 255.491 107.078L255.684 108.392L255.994 110.516L256.627 114.856C256.627 114.856 263.831 129.174 262.485 142.493Z" fill="#2F2E41"/>
<path d="M266.126 68.2746L263.301 94.356L257.921 106.251L255.927 110.662L227.065 110.312L230.039 90.2075C225.841 79.3685 235.811 74.9979 235.811 74.9979L246.153 53.8193C246.153 53.8193 248.908 52.4426 256.102 52.0961C262.789 51.774 257.517 52.7868 257.517 52.7868C266.263 51.9126 266.126 68.2746 266.126 68.2746Z" fill="#74767B"/>
<path opacity="0.2" d="M257.447 95.7327L252.067 107.628C250.338 104.397 249.023 100.738 249.023 98.5771C249.023 92.6331 254.97 95.7799 254.97 95.7799C254.97 95.7799 250.16 69.4691 250.16 61.6021C250.16 56.3766 254.519 79.5669 257.447 95.7327Z" fill="black"/>
<path d="M265.357 24.6782C264.423 22.4024 262.98 20.371 261.137 18.7406C261.893 18.4874 262.524 17.9562 262.902 17.2549C263.454 16.1627 263.161 14.793 262.411 13.8155C261.727 12.9895 260.842 12.3531 259.841 11.967C260.574 12.3003 261.376 12.4546 262.181 12.417C263.157 12.3156 264.132 11.5503 264.074 10.6009C264.019 9.69648 263.129 9.08489 262.33 8.61289C261.811 8.3067 261.293 8.00052 260.775 7.69435C260.928 7.3969 261.064 7.09019 261.18 6.776C261.627 5.63377 261.735 4.38677 261.49 3.18477C261.246 1.98278 260.659 0.876908 259.801 0C261.498 1.72694 261.065 4.39962 259.388 6.56855C259.334 6.63844 259.276 6.70661 259.219 6.7756C258.887 6.57931 258.555 6.38303 258.223 6.18676C257.394 5.69721 256.532 5.19623 255.57 5.08078C254.608 4.96533 253.511 5.34613 253.118 6.20428C252.697 7.12284 253.176 8.29505 252.628 9.14793C252.148 9.89421 251.101 10.0531 250.193 10.0178C249.286 9.98241 248.321 9.83914 247.514 10.2403C246.391 10.798 246.023 12.3062 246.522 13.431C246.744 13.9101 247.075 14.3307 247.488 14.6594C245.086 14.9946 242.72 15.7076 240.395 16.4327C237.653 17.2877 234.86 18.1959 232.569 19.9266C230.277 21.6573 228.541 24.3892 228.76 27.2514C228.978 30.1137 231.823 34.6216 234.659 34.1641L235.09 32.8134C236.805 31.9989 238.731 31.7396 240.6 32.0717C242.469 32.4038 244.188 33.3109 245.517 34.6662C245.55 32.8641 248.294 32.2654 249.662 33.4403C251.029 34.6152 251.293 36.6017 251.399 38.4009C251.505 40.2002 251.605 42.1592 252.791 43.5171C253.929 44.8203 255.868 45.2243 257.555 44.8361C259.241 44.4479 260.699 43.3785 261.907 42.1395C266.289 37.6445 267.7 30.5005 265.357 24.6782Z" fill="#2F2E41"/>
<path d="M219.607 108.59C220.35 109.124 221.201 109.489 222.099 109.659C222.998 109.829 223.924 109.8 224.81 109.574C225.696 109.348 226.522 108.93 227.23 108.351C227.937 107.771 228.509 107.043 228.905 106.219L267.978 106.991L270.564 98.4332L225.59 97.6258C224.16 97.0532 222.57 97.0247 221.121 97.5456C219.671 98.0665 218.463 99.1007 217.726 100.452C216.989 101.804 216.773 103.379 217.12 104.878C217.466 106.378 218.352 107.699 219.607 108.59V108.59Z" fill="#FFB8B8"/>
<path d="M257.594 51.3749C257.594 51.3749 248.498 52.0742 248.498 59.9412C248.498 67.8083 256.719 95.7799 256.719 95.7799C256.719 95.7799 250.772 92.6331 250.772 98.5771C250.772 104.521 260.742 121.829 261.792 110.29C261.792 110.29 276.835 117.633 275.96 103.822C275.086 90.0108 265.64 60.8154 265.64 60.8154C265.64 60.8154 264.591 50.8504 257.594 51.3749Z" fill="#74767B"/>
</g>
<defs>
<linearGradient id="paint0_linear_743_96" x1="111.693" y1="121.615" x2="125.253" y2="108.36" gradientUnits="userSpaceOnUse">
<stop stop-color="#9200FF"/>
<stop offset="1" stop-color="#B754FF"/>
</linearGradient>
<linearGradient id="paint1_linear_743_96" x1="135.935" y1="124.227" x2="136.091" y2="121.867" gradientUnits="userSpaceOnUse">
<stop stop-color="#9200FF"/>
<stop offset="1" stop-color="#B754FF"/>
</linearGradient>
<linearGradient id="paint2_linear_743_96" x1="139.686" y1="129.626" x2="139.89" y2="127.274" gradientUnits="userSpaceOnUse">
<stop stop-color="#9200FF"/>
<stop offset="1" stop-color="#B754FF"/>
</linearGradient>
<linearGradient id="paint3_linear_743_96" x1="71.8119" y1="186.234" x2="87.7987" y2="174.764" gradientUnits="userSpaceOnUse">
<stop stop-color="#9200FF"/>
<stop offset="1" stop-color="#B754FF"/>
</linearGradient>
<linearGradient id="paint4_linear_743_96" x1="192.867" y1="94.2708" x2="203.528" y2="78.4448" gradientUnits="userSpaceOnUse">
<stop stop-color="#9200FF"/>
<stop offset="1" stop-color="#B754FF"/>
</linearGradient>
<clipPath id="clip0_743_96">
<rect width="300" height="273.215" fill="white"/>
</clipPath>
</defs>
</svg>
