<svg width="300" height="208" viewBox="0 0 300 208" fill="none" xmlns="http://www.w3.org/2000/svg">
<g clip-path="url(#clip0_743_140)">
<path d="M232.493 98.6746C231.924 97.2114 232.738 96.4799 233.063 95.1793C233.389 93.8786 232.331 89.8142 232.331 89.8142C232.331 89.8142 228.913 75.7514 227.855 72.9876C227.407 71.818 226.435 71.0135 225.462 70.4732C225.396 70.1144 225.301 69.883 225.169 69.8173C224.227 69.3462 221.879 68.3233 220.314 68.0405C220.021 67.5382 219.674 67.0694 219.279 66.6428C219.554 66.1159 219.681 65.5248 219.648 64.9317C219.548 63.3981 218.385 62.0238 218.536 60.4944C218.651 59.3344 219.5 58.3816 219.828 57.2629C219.965 56.7605 219.998 56.2352 219.923 55.7197C219.849 55.2042 219.669 54.7095 219.395 54.2663C219.636 54.5221 219.877 54.7779 220.117 55.0337C220.445 54.5435 220.603 53.9595 220.566 53.3713C220.53 52.7831 220.302 52.223 219.916 51.7767C219.154 50.9356 217.879 50.6202 217.288 49.6516C216.68 48.6563 217.006 47.3038 216.432 46.2891C215.024 43.8033 211.42 45.5654 209.262 44.6978C208.375 44.3413 207.7 43.9489 206.702 43.9771C205.854 44.0257 205.015 44.1822 204.206 44.4428C203.046 44.7782 202.036 45.5014 201.345 46.4914C201.413 46.4139 201.488 46.3425 201.568 46.278C202.091 45.8685 203.009 45.9026 203.285 46.5064C203.351 46.6581 203.379 46.8237 203.366 46.9886C203.32 47.7165 202.684 48.26 202.051 48.6242C201.419 48.9884 200.707 49.2932 200.294 49.8946C199.613 50.8872 200.014 52.2193 200.014 53.4228C200.008 54.1876 199.831 54.9414 199.495 55.6287C199.16 56.3161 198.674 56.9194 198.074 57.3944L200.37 56.4566C199.273 58.3735 198.554 60.482 198.249 62.6687L201.354 60.1065C200.204 61.9347 199.505 64.0095 199.315 66.1601L201.807 63.6094C201.92 63.8086 201.977 64.035 201.971 64.2642L201.711 65.2655C201.62 65.4642 201.518 65.6581 201.407 65.8466C201.005 66.5345 200.591 67.3811 200.966 68.0835L200.968 68.0825C200.573 69.4094 199.977 70.737 198.652 71.3822C200.122 71.5358 201.656 70.8018 202.319 69.6336C202.428 69.8438 202.558 70.0417 202.709 70.2238C202.752 70.2771 202.794 70.3301 202.836 70.3831L202.47 70.6269L201.489 71.2805C201.489 71.2805 195.06 72.5811 195.467 75.0198C195.483 75.1201 195.503 75.2398 195.526 75.3741L193.676 78.5151L190.991 87.6194C190.991 87.6194 189.607 90.5458 189.852 91.7651C190.096 92.9844 189.852 93.4722 189.852 95.6669C189.852 97.8617 188.794 98.7559 189.852 100.544C190.909 102.333 194.083 107.535 194.083 107.535L194.78 108.057C194.746 108.371 194.758 108.688 194.816 108.998C195.467 112.25 201.57 143.383 201.57 143.383C201.57 143.383 198.478 168.013 204.744 169.558C205.53 169.752 206.301 169.927 207.051 170.084L207.999 176.305L207.429 184.19C207.429 184.19 203.116 193.944 211.01 194.513C218.903 195.082 215.323 186.059 215.323 186.059C215.739 185.289 215.91 184.409 215.811 183.539C215.73 182.816 215.053 179.05 214.388 175.429C217.384 175.07 216.824 171.894 216.424 170.498C216.597 170.397 216.727 170.236 216.787 170.046C216.878 169.721 216.668 168.446 216.287 166.658C215.976 164.881 215.446 162.004 215.085 160.056L217.032 160.372L225.251 112.25C225.251 112.25 225.305 111.484 225.28 110.363C226.404 109.783 227.563 109.272 228.75 108.836C231.435 107.779 232.493 103.877 233.389 102.251C234.284 100.626 233.063 100.138 232.493 98.6746ZM203.311 68.0349C203.577 67.8518 203.889 67.7461 204.211 67.7299C204.142 68.108 203.491 68.2185 202.945 68.4165C203.045 68.27 203.169 68.141 203.311 68.0349V68.0349ZM199.21 92.2529C199.869 93.3348 198.676 96.2668 197.6 98.5934C196.983 98.0629 196.34 98.2302 197.094 96.7237C197.608 95.7691 197.913 94.7162 197.989 93.6348C197.989 93.4489 198.085 92.0832 198.887 91.5159C198.971 91.7712 199.079 92.0179 199.21 92.2529V92.2529ZM196.74 101.591C197.113 101.44 197.678 101.206 198.441 100.947C198.076 101.427 197.658 101.998 197.239 102.621C197.08 102.501 196.952 102.345 196.866 102.166C196.779 101.987 196.736 101.79 196.74 101.591V101.591ZM223.135 102.658C222.64 102.133 222.24 101.663 221.911 101.243C222.525 101.404 223.15 101.578 223.786 101.764C224.103 101.811 224.426 101.789 224.734 101.7C224.762 102.262 224.763 103.064 224.763 103.064L223.871 103.681C223.668 103.311 223.421 102.968 223.135 102.658V102.658ZM225.66 99.8386C225.651 99.8468 225.641 99.8563 225.631 99.865C225.587 99.5436 225.514 99.2268 225.414 98.9185C224.88 97.2383 224.595 94.2573 224.444 91.7134L225.983 96.8863C225.983 96.8863 226.065 99.4875 225.66 99.8386V99.8386Z" fill="#F0F0F2"/>
<path d="M194.05 78.4726C194.05 78.4726 185.701 64.1389 185.44 62.5752C185.179 61.0115 181.005 58.1448 181.005 58.1448C179.579 56.7201 177.239 56.2693 174.776 56.2927C175.703 55.5264 172.392 55.0112 172.134 54.4962C171.873 53.975 171.091 53.975 170.047 53.1931C169.003 52.4113 166.399 53.0627 166.398 53.0628C166.007 52.2398 165.734 51.3652 165.589 50.4655C166.701 49.1515 167.31 47.4861 167.308 45.7656C167.308 45.7469 167.306 45.7285 167.306 45.7098C167.373 45.8131 167.439 45.917 167.505 46.024C167.994 43.0997 168.857 40.6689 167.213 38.0012C166.047 36.1105 164.222 34.7173 162.09 34.0896L160.524 35.3411L161.133 33.8814C160.621 33.8034 160.103 33.7734 159.585 33.792L158.176 35.6017L158.759 33.854C157.537 34.0058 156.359 34.409 155.3 35.0382C154.241 35.6674 153.324 36.5089 152.607 37.5097C150.813 40.0929 150.933 43.6836 152.697 46.2869C152.703 46.2686 152.708 46.2508 152.714 46.2326C152.791 47.4505 153.174 48.6294 153.826 49.6614C154.478 50.6933 155.379 51.5454 156.446 52.1396L156.889 55.6803C156.49 56.0502 155.979 56.2756 155.437 56.3205C154.654 56.3205 153.871 58.4054 153.871 58.4054C153.871 58.4054 153.428 58.629 152.949 59.6847C151.718 60.5222 147.961 63.1531 146.567 64.9916C145.743 65.3969 144.857 66.2985 145.001 68.3087C145.262 71.9573 145.001 88.8972 145.001 88.8972C145.001 88.8972 142.653 103.231 143.435 104.273C144.218 105.316 143.174 108.704 143.174 108.704L143.957 108.878V109.746C143.957 109.746 141.603 120.647 145.262 120.171C151.262 119.389 146.827 110.528 146.827 110.528V109.515L147.871 109.746C147.871 109.746 148.392 106.098 149.436 105.837C149.799 105.746 150.225 104.772 150.626 103.541C150.86 105.462 151.001 106.619 151.001 106.619L152.634 106.256L153.089 107.922C153.201 107.985 153.318 108.038 153.439 108.081L153.089 110.007C153.089 110.007 152.828 112.092 153.089 113.395C153.22 114.052 158.063 128.099 162.832 141.862L162.742 145.19C162.742 145.19 160.394 147.796 160.916 149.62C161.437 151.444 159.611 166.56 159.611 166.56L158.046 174.118L158.44 174.239L158.078 175.563C157.767 175.72 157.489 175.938 157.263 176.203C155.176 178.548 152.567 185.324 152.567 185.324C152.567 185.324 147.871 192.361 155.176 192.1C162.481 191.839 163.003 189.233 163.003 189.233C163.003 189.233 164.046 182.457 164.046 182.197C164.046 181.936 163.525 179.257 163.525 179.257L163.322 179.034L163.463 175.783L164.829 176.203C164.829 176.203 166.134 169.427 167.177 168.645C167.542 168.372 168.512 165.328 169.62 161.418C170.753 164.675 171.849 175.938 172.205 176.96C172.079 177.132 171.968 177.315 171.873 177.506C170.701 179.754 169.394 181.929 167.96 184.021C167.96 184.021 159.611 188.973 167.96 190.276C167.96 190.276 172.656 190.536 175.004 188.973C177.352 187.409 183.614 185.063 183.614 184.542C183.614 184.021 182.048 176.359 180.483 177.193L179.434 174.784L180.483 174.378L173.878 144.762C174.034 144.131 174.149 143.49 174.221 142.844C174.221 141.479 177.6 114.905 178.459 108.165C182.243 109.235 185.701 101.407 185.701 101.407L186.559 99.8645L187.788 100.625C187.788 100.625 188.832 98.0186 190.397 97.758C191.963 97.4974 194.833 83.6849 194.833 81.8606C194.809 80.6894 194.542 79.5358 194.05 78.4726V78.4726ZM181.894 98.8914C181.637 98.4841 181.339 98.1043 181.005 97.758C181.687 95.9833 182.211 94.1519 182.57 92.2851C183.092 89.4184 181.787 80.0363 181.787 80.0363L181.765 79.3991C183.045 81.0782 184.657 83.3169 184.657 83.9455C184.657 84.2489 184.728 84.5482 184.864 84.8196C185 85.091 185.197 85.3271 185.44 85.5092L183.875 90.982C183.875 90.982 182.831 93.5882 182.57 94.8912C182.414 95.6638 182.327 96.4487 182.309 97.2367L182.679 97.4654L181.894 98.8914Z" fill="#F0F0F2"/>
<path d="M74.6085 83.2963L76.0007 82.9835L70.2609 66.8254L57.8681 62.2647C57.8681 62.2647 57.8207 62.3173 57.733 62.4079C56.676 61.386 56.2273 59.9032 56.0399 58.736C57.0365 58.3338 57.9319 57.7169 58.6623 56.9293C59.3927 56.1416 59.9401 55.2026 60.2653 54.1793C60.5905 53.1559 60.6856 52.0735 60.5437 51.0093C60.4019 49.945 60.0266 48.9252 59.4447 48.0225C60.4659 47.7776 60.8304 46.8522 61.1732 45.7487C60.961 45.6862 60.7445 45.6391 60.5255 45.6079C60.6861 45.2482 60.8467 44.8884 61.0073 44.5287C60.7251 44.5034 60.4428 44.4781 60.1606 44.4528C60.2328 44.1165 60.3049 43.7802 60.3771 43.444C60.0171 43.6922 59.6572 43.9404 59.2973 44.1886C59.4195 43.8355 59.4499 43.4573 59.3856 43.0893C59.3213 42.7213 59.1644 42.3757 58.9296 42.0849C58.4516 41.508 57.8282 41.0689 57.1237 40.813C55.7458 40.2715 54.2452 40.1197 52.7866 40.3743C51.328 40.629 49.9679 41.2802 48.8556 42.2564L48.7776 41.9527C46.5749 43.6441 45.1336 46.139 44.7698 48.8903C44.4242 51.6099 45.7321 54.3791 47.4322 56.5312C47.4178 56.4373 47.4025 56.3436 47.3869 56.25C47.4603 56.3511 47.5362 56.4503 47.6145 56.5475L47.8235 64.4799L47.3001 64.928C47.2993 64.9284 38.5187 68.8965 38.1765 73.6361L38.1755 73.6396C37.6484 75.9469 37.3875 87.9351 37.3875 87.9351H38.11L37.3875 92.6261L32.6913 110.869C32.6913 110.869 26.6906 118.687 31.9086 120.251C35.1511 121.223 36.0762 117.465 36.3121 114.48C36.5 115.22 37.0619 115.72 38.1702 115.821C38.2574 115.829 38.3506 115.835 38.4406 115.843C35.9734 122.212 37.6484 142.925 37.6484 142.925C36.3439 145.531 51.737 163.513 51.737 163.513L52.6639 163.019L52.8645 163.42C52.3486 163.469 51.9979 163.513 51.9979 163.513V171.592C51.9979 171.592 49.6498 179.671 52.7806 181.235C53.5907 181.639 54.4357 181.345 55.2433 180.688C55.089 183.181 54.8678 186.901 54.8678 187.75C54.8678 189.053 58.2595 191.399 58.2595 191.399C58.2595 191.399 59.0422 194.265 65.3038 194.265C71.5654 194.265 66.8692 186.708 66.8692 186.708L63.4775 179.15C63.4775 179.15 63.2237 179.274 62.4557 178.649L62.7308 175.627L64.2602 175.762L66.3474 145.27C66.3474 145.27 68.1737 118.166 68.4346 113.996C68.4957 112.66 68.4642 111.32 68.3403 109.988L76.0007 94.1898L74.6085 83.2963ZM68.9564 93.408L68.1737 96.1326V90.1069L68.9564 93.408ZM36.3849 112.735C36.3914 111.78 36.3439 111.13 36.3439 111.13L41.4445 100.94L41.301 104.093C41.301 104.093 37.2161 109.255 36.3849 112.735ZM48.3453 142.143L53.3024 124.682L56.1723 145.791L55.9665 153.466C55.617 152.76 55.3365 152.023 55.1287 151.264C54.346 148.137 48.3453 142.143 48.3453 142.143Z" fill="#F0F0F2"/>
<path d="M118.948 183.621C116.504 182.615 111.759 180.461 111.183 179.312C110.608 178.163 107.732 169.257 107.732 169.257L106.992 169.311C106.896 165.265 106.489 149.586 105.863 147.711C105.863 147.711 108.883 122.862 102.843 112.951L101.755 108.56C102.112 106.799 102.066 102.723 101.837 102.034C101.549 101.173 105.144 98.4435 104.137 96.7198C103.131 94.9961 100.399 89.107 100.399 89.107C100.399 89.107 100.686 85.3724 96.8038 81.9251C96.8038 81.9251 95.6693 75.5089 90.5566 75.4133C89.8655 74.2084 88.898 72.2925 89.1826 71.4395C89.4874 70.5262 90.6528 67.6788 91.311 66.085C91.6606 65.9273 91.9964 65.7406 92.3149 65.527C96.3811 63.7072 99.2474 59.3324 99.2474 54.2219C99.2474 48.7512 95.9638 44.1213 91.4387 42.5688C91.6403 42.0381 91.7227 41.4697 91.6802 40.9037C91.6376 40.3377 91.4712 39.788 91.1926 39.2933C90.914 38.7986 90.5301 38.3711 90.0679 38.0409C89.6058 37.7107 89.0767 37.4859 88.518 37.3824C87.9593 37.2789 87.3847 37.2993 86.8348 37.4419C86.2848 37.5846 85.7729 37.8462 85.3353 38.2082C84.8977 38.5702 84.545 39.0238 84.3021 39.5369C84.0592 40.05 83.9321 40.6102 83.9298 41.1777C83.6809 40.5885 83.582 39.9469 83.6418 39.3102C83.7017 38.6735 83.9184 38.0615 84.2727 37.5289C84.627 36.9962 85.1078 36.5595 85.6722 36.2577C86.2367 35.9559 86.8671 35.7984 87.5073 35.7992C87.7593 35.7996 88.0107 35.8243 88.2579 35.8731C87.4054 35.4681 86.4343 35.3876 85.5266 35.6465C84.6189 35.9055 83.8369 36.4862 83.3271 37.2799C82.8174 38.0735 82.6148 39.0256 82.7574 39.9578C82.9001 40.8899 83.3781 41.7381 84.1019 42.3434C84.1466 42.4852 84.1995 42.6244 84.2604 42.7601C80.0024 44.4764 76.965 48.9603 76.965 54.2219C76.965 59.1026 79.5792 63.3126 83.356 65.2668C83.3359 66.8545 82.9417 69.5311 80.7498 71.1623C79.6175 70.6455 78.0462 70.0783 77.038 70.3356C76.5167 69.9296 75.7298 69.7956 74.6593 70.8649C72.5023 73.0195 70.6329 78.6214 70.6329 82.0687C70.6329 85.5161 71.0643 105.482 71.0643 105.482C71.0643 105.482 68.7636 106.344 70.3454 107.636C70.6721 107.908 71.082 108.06 71.5071 108.068L73.0775 119.702C73.0775 119.702 72.0709 130.906 75.9534 131.049C76.2579 131.066 76.5604 130.992 76.8225 130.836L73.9403 143.833C73.9403 143.833 67.3257 148.142 62.149 156.617C59.4827 160.982 58.1534 163.667 57.4894 165.248L56.5409 164.661L53.2336 170.981C53.2336 170.981 45.9 175.434 47.4818 178.737C49.0635 182.041 50.5015 182.903 50.5015 182.903L51.5081 182.472L53.3774 185.919C53.3774 185.919 58.2665 192.957 66.1753 189.366C66.5464 188.868 66.7469 188.264 66.7469 187.643C66.7469 187.022 66.5464 186.417 66.1753 185.919C64.8811 184.052 61.5738 180.03 61.5738 180.03L63.7307 169.113L63.2844 168.837L76.96 152.308C76.96 152.308 80.9863 149.866 82.4243 147.711C83.8622 145.557 92.7776 123.293 92.7776 123.293L97.8104 146.562C97.8104 146.562 97.5229 155.037 98.817 160.495C99.5224 163.557 99.9824 166.67 100.193 169.805L99.8236 169.832L100.686 176.295C100.686 176.295 96.9477 185.488 99.536 186.206C101.377 186.682 103.252 187.018 105.144 187.212L105.432 186.206C105.432 186.206 116.504 192.239 120.53 187.786C120.53 187.786 121.393 184.626 118.948 183.621ZM79.5483 113.095C79.9797 113.525 79.8359 115.536 79.8359 115.536L78.9731 121.138L78.1114 125.024C77.9923 123.188 77.7517 121.362 77.3913 119.558L76.9933 108.823C77.0715 108.872 77.1575 108.908 77.2476 108.929C77.5351 108.929 77.3913 106.487 77.3913 106.487C77.3913 106.487 77.5592 106.051 77.7686 105.363C78.3277 107.035 79.0101 108.125 79.8359 108.354L79.9797 110.222C79.9797 110.222 78.1103 111.084 79.8359 111.084C79.936 111.08 80.0354 111.065 80.1323 111.04L79.9797 111.802C79.9797 111.802 79.1169 112.664 79.5483 113.095Z" fill="#F0F0F2"/>
<path d="M116.491 190.312C180.33 190.312 232.082 189.46 232.082 188.409C232.082 187.358 180.33 186.506 116.491 186.506C52.6511 186.506 0.898926 187.358 0.898926 188.409C0.898926 189.46 52.6511 190.312 116.491 190.312Z" fill="#3F3D56"/>
<path d="M156.947 198.242C227.17 198.242 284.097 196.041 284.097 193.326C284.097 190.61 227.17 188.409 156.947 188.409C86.724 188.409 29.7969 190.61 29.7969 193.326C29.7969 196.041 86.724 198.242 156.947 198.242Z" fill="#3F3D56"/>
<path d="M133.48 205.538C167.943 205.538 195.881 203.337 195.881 200.622C195.881 197.906 167.943 195.705 133.48 195.705C99.0172 195.705 71.0796 197.906 71.0796 200.622C71.0796 203.337 99.0172 205.538 133.48 205.538Z" fill="#3F3D56"/>
<path d="M78.2246 206.807C85.503 206.807 91.4034 205.671 91.4034 204.269C91.4034 202.868 85.503 201.732 78.2246 201.732C70.9462 201.732 65.0459 202.868 65.0459 204.269C65.0459 205.671 70.9462 206.807 78.2246 206.807Z" fill="#3F3D56"/>
<path d="M143.324 175.562L144.594 184.444L150.946 183.809L150.311 174.61L143.324 175.562Z" fill="#FFB8B8"/>
<path d="M113.156 175.562L111.886 184.444L105.535 183.809L106.17 174.61L113.156 175.562Z" fill="#FFB8B8"/>
<path d="M103.947 83.5708C103.947 83.5708 98.2308 90.2322 99.5011 100.7C100.771 111.168 102.994 134.959 102.994 134.959L104.582 177.148L114.744 176.514L116.332 140.669L121.413 111.803L135.068 145.427C135.068 145.427 141.737 176.831 142.054 176.831C142.372 176.831 151.581 175.879 151.581 175.879L147.135 138.765C147.135 138.765 140.149 84.8396 136.02 83.888C131.892 82.9364 103.947 83.5708 103.947 83.5708Z" fill="#2F2E41"/>
<path d="M151.581 182.541C151.581 182.541 145.865 178.734 143.642 183.175C141.419 187.616 143.324 190.788 143.324 190.788C143.324 190.788 145.23 192.057 144.277 193.326C143.324 194.595 143.007 202.842 151.263 201.573C159.52 200.304 155.392 191.74 155.392 191.74L151.581 182.541Z" fill="#2F2E41"/>
<path d="M104.899 182.541C104.899 182.541 110.616 178.734 112.838 183.175C115.061 187.616 113.156 190.788 113.156 190.788C113.156 190.788 111.251 192.057 112.203 193.326C113.156 194.595 113.474 202.842 105.217 201.573C96.9604 200.304 101.089 191.74 101.089 191.74L104.899 182.541Z" fill="#2F2E41"/>
<path d="M111.727 21.8733C111.727 21.8733 114.585 29.8036 112.362 34.2445C110.139 38.6855 115.855 43.7608 115.855 43.7608C115.855 43.7608 130.781 36.1478 128.875 32.3412C126.97 28.5347 123.794 23.4593 124.429 20.2872L111.727 21.8733Z" fill="#FFB8B8"/>
<path d="M117.284 24.8868C122.897 24.8868 127.446 20.3422 127.446 14.7361C127.446 9.12997 122.897 4.58533 117.284 4.58533C111.672 4.58533 107.123 9.12997 107.123 14.7361C107.123 20.3422 111.672 24.8868 117.284 24.8868Z" fill="#FFB8B8"/>
<path d="M109.981 33.7687C109.981 33.7687 120.177 42.244 127.781 30.2347L135.703 34.7203L139.831 82.9363C139.831 82.9363 116.649 96.2592 105.535 84.8396L107.122 40.1129L109.981 33.7687Z" fill="#F0F0F2"/>
<path d="M113.183 29.0209L98.8661 38.5267L103.947 62.0003L97.2783 98.4796L108.075 82.3018L113.183 29.0209Z" fill="url(#paint0_linear_743_140)"/>
<path d="M125.836 26.375L129.352 28.6933L143.642 33.7687L141.419 73.1028L147.453 98.4797L138.879 102.921C138.879 102.921 137.291 90.8666 127.447 84.8396C117.602 78.8126 123.59 28.1804 125.836 26.375Z" fill="url(#paint1_linear_743_140)"/>
<path d="M102.042 88.0117L106.17 90.8666C106.17 90.8666 100.93 96.4178 99.9775 95.4662C99.7018 95.2018 99.4878 94.88 99.3506 94.5236C99.2134 94.1673 99.1564 93.7851 99.1836 93.4043L98.231 91.1838L102.042 88.0117Z" fill="#FFB8B8"/>
<path d="M129.485 87.3947L128.082 89.5978C128.082 89.5978 123.953 91.5011 124.906 92.7699C125.859 94.0388 133.798 96.8937 135.385 94.0388L136.973 91.1839L129.485 87.3947Z" fill="#FFB8B8"/>
<path d="M100.771 38.2097L98.5482 38.5269L94.8962 62.1591C94.8962 62.1591 93.4672 66.4414 95.055 76.5922C96.6428 86.7429 98.2152 93.3529 98.2152 93.3529L105.217 88.329L102.041 80.0815L106.17 49.9464L100.771 38.2097Z" fill="url(#paint2_linear_743_140)"/>
<path d="M138.561 33.1343L143.642 33.7687C143.642 33.7687 149.358 39.7957 150.311 46.1399C151.263 52.4841 150.946 70.5651 150.946 70.5651L136.338 93.7215L128.399 88.0117L139.514 68.3447L134.115 44.8711L138.561 33.1343Z" fill="url(#paint3_linear_743_140)"/>
<path d="M126.975 5.55525C125.438 3.06263 123.033 1.22584 120.222 0.398403L118.157 2.04831L118.96 0.123878C118.285 0.0210118 117.602 -0.018431 116.919 0.00606628L115.062 2.39189L115.83 0.0877891C114.218 0.287889 112.665 0.819448 111.269 1.64894C109.873 2.47844 108.665 3.58788 107.719 4.90731C105.355 8.31275 104.956 13.0486 107.281 16.4807C107.92 14.5211 108.694 12.6824 109.333 10.7227C109.834 10.7911 110.343 10.7935 110.845 10.7301L111.622 8.91988L111.839 10.6535C114.246 10.444 117.817 9.98409 120.099 9.56267L119.877 8.23273L121.205 9.33791C121.904 9.17711 122.319 9.03132 122.285 8.91988C123.982 11.6531 125.664 13.3989 127.361 16.1321C128.005 12.2768 129.143 9.07215 126.975 5.55525Z" fill="#2F2E41"/>
<path d="M126.412 15.7915C126.792 15.7915 127.1 15.1762 127.1 14.4172C127.1 13.6581 126.792 13.0428 126.412 13.0428C126.032 13.0428 125.724 13.6581 125.724 14.4172C125.724 15.1762 126.032 15.7915 126.412 15.7915Z" fill="#FFB8B8"/>
<path d="M299.972 16.2379C299.981 16.2087 299.991 16.1791 300 16.1497C299.996 16.1626 299.991 16.175 299.987 16.1879L299.972 16.2379Z" fill="#2F2E41"/>
</g>
<defs>
<linearGradient id="paint0_linear_743_140" x1="86.7281" y1="37.151" x2="109.105" y2="32.145" gradientUnits="userSpaceOnUse">
<stop stop-color="#B754FF"/>
<stop offset="1" stop-color="#9200FF"/>
</linearGradient>
<linearGradient id="paint1_linear_743_140" x1="105.067" y1="35.3347" x2="139.113" y2="24.2615" gradientUnits="userSpaceOnUse">
<stop stop-color="#B754FF"/>
<stop offset="1" stop-color="#9200FF"/>
</linearGradient>
<linearGradient id="paint2_linear_743_140" x1="86.4357" y1="44.6642" x2="103.222" y2="41.1357" gradientUnits="userSpaceOnUse">
<stop stop-color="#B754FF"/>
<stop offset="1" stop-color="#9200FF"/>
</linearGradient>
<linearGradient id="paint3_linear_743_140" x1="113.409" y1="40.226" x2="142.881" y2="29.4865" gradientUnits="userSpaceOnUse">
<stop stop-color="#B754FF"/>
<stop offset="1" stop-color="#9200FF"/>
</linearGradient>
<clipPath id="clip0_743_140">
<rect width="300" height="207.408" fill="white" transform="translate(0 -0.000976562)"/>
</clipPath>
</defs>
</svg>
