<svg width="200" height="20" viewBox="0 0 200 20" fill="white" xmlns="http://www.w3.org/2000/svg">
<g clip-path="url(#clip0_866_50)">
<path d="M29.081 16.2278V0.764838C29.081 0.691167 29.0517 0.620513 28.9996 0.56842C28.9475 0.516326 28.8769 0.487061 28.8032 0.487061H26.581C26.5073 0.487061 26.4367 0.516326 26.3846 0.56842C26.3325 0.620513 26.3032 0.691167 26.3032 0.764838V18.7278C26.3032 18.8015 26.3325 18.8721 26.3846 18.9242C26.4367 18.9763 26.5073 19.0056 26.581 19.0056H38.0625C38.1362 19.0056 38.2068 18.9763 38.2589 18.9242C38.311 18.8721 38.3403 18.8015 38.3403 18.7278V16.5056C38.3403 16.4319 38.311 16.3613 38.2589 16.3092C38.2068 16.2571 38.1362 16.2278 38.0625 16.2278H29.081Z" fill="white"/>
<path d="M57.7776 0.487061H44.4443C44.2909 0.487061 44.1665 0.611426 44.1665 0.764838V2.98706C44.1665 3.14047 44.2909 3.26484 44.4443 3.26484H57.7776C57.931 3.26484 58.0554 3.14047 58.0554 2.98706V0.764838C58.0554 0.611426 57.931 0.487061 57.7776 0.487061Z" fill="white"/>
<path d="M57.7776 16.2278H44.4443C44.2909 16.2278 44.1665 16.3521 44.1665 16.5056V18.7278C44.1665 18.8812 44.2909 19.0056 44.4443 19.0056H57.7776C57.931 19.0056 58.0554 18.8812 58.0554 18.7278V16.5056C58.0554 16.3521 57.931 16.2278 57.7776 16.2278Z" fill="white"/>
<path d="M57.7776 8.34717H44.4443C44.2909 8.34717 44.1665 8.47153 44.1665 8.62495V10.8472C44.1665 11.0006 44.2909 11.1249 44.4443 11.1249H57.7776C57.931 11.1249 58.0554 11.0006 58.0554 10.8472V8.62495C58.0554 8.47153 57.931 8.34717 57.7776 8.34717Z" fill="white"/>
<path d="M155.539 0.487061H142.206C142.052 0.487061 141.928 0.611426 141.928 0.764838V2.98706C141.928 3.14047 142.052 3.26484 142.206 3.26484H155.539C155.692 3.26484 155.817 3.14047 155.817 2.98706V0.764838C155.817 0.611426 155.692 0.487061 155.539 0.487061Z" fill="white"/>
<path d="M155.539 16.2278H142.206C142.052 16.2278 141.928 16.3521 141.928 16.5056V18.7278C141.928 18.8812 142.052 19.0056 142.206 19.0056H155.539C155.692 19.0056 155.817 18.8812 155.817 18.7278V16.5056C155.817 16.3521 155.692 16.2278 155.539 16.2278Z" fill="white"/>
<path d="M155.539 8.34717H142.206C142.052 8.34717 141.928 8.47153 141.928 8.62495V10.8472C141.928 11.0006 142.052 11.1249 142.206 11.1249H155.539C155.692 11.1249 155.817 11.0006 155.817 10.8472V8.62495C155.817 8.47153 155.692 8.34717 155.539 8.34717Z" fill="white"/>
<path d="M101.944 0.487061H99.7221C99.5687 0.487061 99.4443 0.611426 99.4443 0.764838V18.7278C99.4443 18.8812 99.5687 19.0056 99.7221 19.0056H101.944C102.098 19.0056 102.222 18.8812 102.222 18.7278V0.764838C102.222 0.611426 102.098 0.487061 101.944 0.487061Z" fill="white"/>
<path d="M96.3888 8.36023H89.2592V0.764838C89.2592 0.728359 89.252 0.692237 89.238 0.658535C89.2241 0.624833 89.2036 0.59421 89.1778 0.568415C89.152 0.542621 89.1214 0.52216 89.0877 0.508201C89.054 0.494242 89.0179 0.487059 88.9814 0.487061H86.7592C86.6855 0.487072 86.6149 0.516341 86.5628 0.568432C86.5107 0.620523 86.4814 0.69117 86.4814 0.764838V8.36023H83.9814C83.9077 8.36025 83.8371 8.38952 83.785 8.44161C83.7329 8.4937 83.7036 8.56434 83.7036 8.63801V10.8602C83.7036 10.9339 83.7329 11.0045 83.785 11.0566C83.8371 11.1087 83.9077 11.138 83.9814 11.138H86.4814V18.7278C86.4814 18.8015 86.5107 18.8721 86.5628 18.9242C86.6149 18.9763 86.6855 19.0056 86.7592 19.0056H88.9814C89.0179 19.0056 89.054 18.9984 89.0877 18.9844C89.1214 18.9705 89.152 18.95 89.1778 18.9242C89.2036 18.8984 89.2241 18.8678 89.238 18.8341C89.252 18.8004 89.2592 18.7643 89.2592 18.7278V11.138H96.3888C96.4253 11.138 96.4614 11.1308 96.4951 11.1169C96.5288 11.1029 96.5594 11.0825 96.5852 11.0567C96.611 11.0309 96.6315 11.0002 96.6454 10.9665C96.6594 10.9328 96.6666 10.8967 96.6666 10.8602V8.63801C96.6666 8.60153 96.6594 8.56541 96.6454 8.53171C96.6315 8.49801 96.611 8.46738 96.5852 8.44159C96.5594 8.41579 96.5288 8.39533 96.4951 8.38137C96.4614 8.36742 96.4253 8.36023 96.3888 8.36023Z" fill="white"/>
<path d="M16.0854 11.125H19.1667C19.2403 11.125 19.311 11.0957 19.3631 11.0436C19.4152 10.9915 19.4444 10.9209 19.4444 10.8472V8.62499C19.4444 8.55132 19.4152 8.48066 19.3631 8.42857C19.311 8.37648 19.2403 8.34721 19.1667 8.34721H14.8487L11.4469 0.706786C11.4178 0.641375 11.3704 0.585808 11.3103 0.546811C11.2503 0.507814 11.1802 0.48706 11.1086 0.487061H8.33585C8.26425 0.487061 8.19418 0.507815 8.13414 0.546812C8.07409 0.585809 8.02663 0.641376 7.9975 0.706786L4.59581 8.34721H0.277778C0.204107 8.34721 0.133453 8.37648 0.0813592 8.42857C0.0292658 8.48066 0 8.55132 0 8.62499V10.8472C0 10.9209 0.0292658 10.9915 0.0813592 11.0436C0.133453 11.0957 0.204107 11.125 0.277778 11.125H3.35901L0.0243574 18.6148C0.00552544 18.6571 -0.00243591 18.7034 0.00119719 18.7496C0.00483029 18.7957 0.0199426 18.8403 0.0451602 18.8791C0.0703778 18.9179 0.104901 18.9498 0.145591 18.9719C0.186281 18.994 0.231848 19.0056 0.278148 19.0056H2.75798C2.82958 19.0056 2.89965 18.9848 2.9597 18.9458C3.01976 18.9068 3.06722 18.8513 3.09634 18.7858L9.72222 3.90385L16.3481 18.7858C16.3772 18.8513 16.4247 18.9068 16.4847 18.9458C16.5448 18.9848 16.6149 19.0056 16.6865 19.0056H19.1664C19.2127 19.0056 19.2582 18.994 19.2989 18.9719C19.3396 18.9498 19.3741 18.9179 19.3993 18.8791C19.4245 18.8403 19.4396 18.7957 19.4433 18.7496C19.4469 18.7034 19.4389 18.6571 19.4201 18.6148L16.0854 11.125Z" fill="white"/>
<path d="M79.125 4.58659C78.6111 3.3711 77.7503 2.33401 76.6504 1.6049C75.5504 0.875797 74.2599 0.487005 72.9402 0.487105L65.1162 0.487061C65.0425 0.487072 64.9718 0.516341 64.9198 0.568432C64.8677 0.620523 64.8384 0.69117 64.8384 0.764838V2.98706C64.8384 3.06073 64.8676 3.13138 64.9197 3.18348C64.9718 3.23557 65.0425 3.26483 65.1162 3.26484H72.9402C73.4571 3.26467 73.9688 3.36635 74.4464 3.56405C74.9239 3.76176 75.3577 4.05161 75.7232 4.41706C76.0886 4.78251 76.3785 5.21639 76.5762 5.6939C76.7739 6.17141 76.8756 6.6832 76.8754 7.20002V7.20007C76.8756 7.71689 76.7739 8.22868 76.5762 8.7062C76.3785 9.18371 76.0887 9.61759 75.7232 9.98304C75.3578 10.3485 74.9239 10.6383 74.4464 10.836C73.9688 11.0337 73.4571 11.1354 72.9402 11.1353L65.1162 11.1352C65.0425 11.1352 64.9718 11.1645 64.9198 11.2166C64.8677 11.2687 64.8384 11.3393 64.8384 11.413V18.7278C64.8384 18.8015 64.8676 18.8721 64.9197 18.9242C64.9718 18.9763 65.0425 19.0056 65.1162 19.0056H67.3384C67.3749 19.0056 67.411 18.9984 67.4447 18.9844C67.4784 18.9705 67.509 18.95 67.5348 18.9242C67.5606 18.8984 67.5811 18.8678 67.595 18.8341C67.609 18.8004 67.6162 18.7643 67.6162 18.7278V13.913L72.9402 13.913C73.8218 13.9132 74.6948 13.7397 75.5094 13.4024C76.3239 13.0651 77.064 12.5706 77.6874 11.9472C78.3108 11.3238 78.8052 10.5837 79.1425 9.7692C79.4798 8.95467 79.6533 8.08167 79.6531 7.20007L79.6532 7.20002C79.6541 6.30229 79.4745 5.41354 79.125 4.58659V4.58659Z" fill="white"/>
<path d="M176.275 10.9544C177.025 9.84584 177.424 8.5381 177.423 7.20011L177.423 7.20002C177.423 6.31842 177.249 5.44541 176.912 4.63088C176.575 3.81635 176.08 3.07625 175.457 2.45287C174.834 1.82948 174.093 1.33502 173.279 0.99774C172.464 0.660457 171.591 0.486957 170.71 0.487151L162.886 0.487061C162.812 0.48708 162.741 0.516352 162.689 0.568441C162.637 0.62053 162.608 0.691173 162.608 0.764838V2.98706C162.608 3.06073 162.637 3.13138 162.689 3.18347C162.741 3.23557 162.812 3.26483 162.886 3.26484H170.71C171.227 3.26468 171.738 3.36636 172.216 3.56407C172.693 3.76178 173.127 4.05163 173.493 4.41708C173.858 4.78253 174.148 5.2164 174.346 5.69391C174.543 6.17142 174.645 6.6832 174.645 7.20002V7.20011C174.645 7.71693 174.543 8.22872 174.346 8.70623C174.148 9.18374 173.858 9.61761 173.493 9.98306C173.127 10.3485 172.693 10.6384 172.216 10.8361C171.738 11.0338 171.227 11.1355 170.71 11.1353L162.886 11.1352C162.812 11.1352 162.741 11.1645 162.689 11.2166C162.637 11.2687 162.608 11.3393 162.608 11.413V18.7278C162.608 18.8015 162.637 18.8721 162.689 18.9242C162.741 18.9763 162.812 19.0056 162.886 19.0056H165.108C165.144 19.0056 165.181 18.9984 165.214 18.9844C165.248 18.9705 165.279 18.95 165.304 18.9242C165.33 18.8984 165.351 18.8678 165.365 18.8341C165.379 18.8004 165.386 18.7643 165.386 18.7278V13.9131L170.71 13.913C171.175 13.913 171.638 13.8649 172.093 13.7693L174.351 18.8408C174.373 18.8899 174.408 18.9315 174.453 18.9608C174.498 18.99 174.551 19.0056 174.605 19.0056H177.145C177.191 19.0056 177.237 18.994 177.277 18.9719C177.318 18.9498 177.352 18.9179 177.378 18.8791C177.403 18.8403 177.418 18.7958 177.422 18.7496C177.425 18.7035 177.417 18.6572 177.398 18.6149L174.713 12.5843C175.322 12.1326 175.85 11.5816 176.275 10.9544V10.9544Z" fill="white"/>
<path d="M135.824 0.487061H122.49C122.417 0.487061 122.346 0.516326 122.294 0.56842C122.242 0.620513 122.212 0.691167 122.212 0.764838V2.98706C122.212 3.06073 122.242 3.13139 122.294 3.18348C122.346 3.23557 122.417 3.26484 122.49 3.26484H131.973L128.284 7.97167C128.257 8.00721 128.239 8.04986 128.235 8.09475C128.23 8.13965 128.238 8.18498 128.257 8.22557C128.277 8.26617 128.308 8.30039 128.346 8.32432C128.385 8.34826 128.429 8.36096 128.474 8.36096H131.277C131.361 8.36096 131.444 8.34179 131.52 8.30491C131.596 8.26804 131.662 8.21441 131.714 8.14809L135.983 2.7008C136.06 2.603 136.101 2.48233 136.101 2.35808V0.764838C136.101 0.691167 136.072 0.620513 136.02 0.56842C135.968 0.516326 135.897 0.487061 135.824 0.487061V0.487061Z" fill="white"/>
<path d="M135.824 16.2277H125.383L129.066 11.5279C129.093 11.4924 129.111 11.4498 129.116 11.4049C129.12 11.36 129.112 11.3146 129.093 11.274C129.073 11.2335 129.042 11.1992 129.004 11.1753C128.966 11.1514 128.921 11.1387 128.876 11.1387H126.073C125.989 11.1387 125.906 11.1578 125.83 11.1947C125.754 11.2316 125.688 11.2852 125.636 11.3516L121.405 16.7507C121.328 16.8485 121.287 16.9692 121.287 17.0934V18.7277C121.287 18.8014 121.316 18.8721 121.368 18.9242C121.42 18.9763 121.491 19.0055 121.564 19.0055H135.824C135.897 19.0055 135.968 18.9763 136.02 18.9242C136.072 18.8721 136.101 18.8014 136.101 18.7277V16.5055C136.101 16.4319 136.072 16.3612 136.02 16.3091C135.968 16.257 135.897 16.2277 135.824 16.2277V16.2277Z" fill="white"/>
<path d="M197.468 11.1182C197.403 11.1186 197.34 11.1419 197.29 11.1842C197.24 11.2264 197.206 11.2849 197.195 11.3493C197.117 11.7829 197 12.2086 196.847 12.6216C196.434 13.7724 195.675 14.7674 194.675 15.4704C193.687 16.1421 192.517 16.495 191.322 16.4815C190.517 16.4862 189.72 16.3298 188.977 16.0215C187.89 15.5634 186.975 14.7758 186.359 13.7696C185.908 13.0267 185.6 12.2056 185.451 11.3491C185.44 11.2847 185.407 11.2264 185.357 11.1842C185.307 11.142 185.244 11.1186 185.179 11.1182H182.925C182.885 11.118 182.846 11.1264 182.81 11.1428C182.773 11.1591 182.741 11.183 182.715 11.2128C182.689 11.2426 182.669 11.2777 182.658 11.3157C182.646 11.3537 182.643 11.3937 182.648 11.433C182.753 12.1721 182.936 12.8979 183.196 13.5976C183.792 15.27 184.896 16.7146 186.353 17.7297C187.809 18.7447 189.547 19.2794 191.322 19.2593C192.496 19.2639 193.659 19.0338 194.743 18.5824C196.361 17.9007 197.724 16.7306 198.644 15.2356C199.353 14.0752 199.813 12.7805 199.996 11.4333C200.001 11.3939 199.998 11.3539 199.987 11.3159C199.975 11.2779 199.956 11.2428 199.93 11.2129C199.904 11.183 199.871 11.1591 199.835 11.1428C199.799 11.1265 199.76 11.1181 199.72 11.1182L197.468 11.1182Z" fill="white"/>
<path d="M185.173 8.34028C185.238 8.33988 185.302 8.31646 185.352 8.27412C185.402 8.23177 185.435 8.17319 185.446 8.10864C185.525 7.67043 185.642 7.24011 185.797 6.82281C186.21 5.67199 186.969 4.67696 187.969 3.97396C188.957 3.30223 190.127 2.94936 191.322 2.96285C192.126 2.9582 192.924 3.11459 193.667 3.42283C194.754 3.88096 195.669 4.6686 196.284 5.67471C196.738 6.42165 197.047 7.24748 197.195 8.1089C197.206 8.17334 197.239 8.23182 197.289 8.27412C197.339 8.31641 197.402 8.33983 197.468 8.34027H199.721C199.761 8.34038 199.8 8.33201 199.836 8.31571C199.872 8.29941 199.904 8.27557 199.931 8.24578C199.957 8.21598 199.976 8.18094 199.988 8.14299C199.999 8.10505 200.002 8.06508 199.997 8.02578C199.893 7.28167 199.709 6.55106 199.447 5.84678C198.851 4.17432 197.748 2.72973 196.291 1.71472C194.834 0.699704 193.097 0.164949 191.322 0.185121C190.148 0.180475 188.984 0.410602 187.9 0.861973C186.283 1.54363 184.919 2.71378 184 4.20873C183.289 5.37338 182.827 6.67314 182.646 8.02551C182.64 8.06483 182.643 8.10483 182.655 8.1428C182.666 8.18078 182.686 8.21585 182.712 8.24567C182.738 8.27548 182.771 8.29935 182.807 8.31567C182.843 8.33199 182.882 8.34038 182.922 8.34027L185.173 8.34028Z" fill="white"/>
</g>
<defs>
<clipPath id="clip0_866_50">
<rect width="200" height="19.4444" fill="white"/>
</clipPath>
</defs>
</svg>
