<svg width="200" height="99" viewBox="0 0 200 99" fill="none" xmlns="http://www.w3.org/2000/svg">
<path d="M57.1159 34.4146V1.01455C57.1159 0.855421 57.0589 0.702809 56.9575 0.590287C56.8562 0.477765 56.7187 0.414551 56.5753 0.414551H52.251C52.1076 0.414551 51.9701 0.477765 51.8688 0.590287C51.7674 0.702809 51.7104 0.855421 51.7104 1.01455V39.8146C51.7104 39.9737 51.7674 40.1263 51.8688 40.2388C51.9701 40.3513 52.1076 40.4146 52.251 40.4146H74.5933C74.7367 40.4146 74.8742 40.3513 74.9756 40.2388C75.0769 40.1263 75.1339 39.9737 75.1339 39.8146V35.0146C75.1339 34.8554 75.0769 34.7028 74.9756 34.5903C74.8742 34.4778 74.7367 34.4146 74.5933 34.4146H57.1159Z" fill="white"/>
<path d="M112.958 0.414551H87.0122C86.7137 0.414551 86.4717 0.68318 86.4717 1.01455V5.81455C86.4717 6.14592 86.7137 6.41455 87.0122 6.41455H112.958C113.257 6.41455 113.499 6.14592 113.499 5.81455V1.01455C113.499 0.68318 113.257 0.414551 112.958 0.414551Z" fill="white"/>
<path d="M112.958 34.4146H87.0122C86.7137 34.4146 86.4717 34.6832 86.4717 35.0146V39.8146C86.4717 40.1459 86.7137 40.4146 87.0122 40.4146H112.958C113.257 40.4146 113.499 40.1459 113.499 39.8146V35.0146C113.499 34.6832 113.257 34.4146 112.958 34.4146Z" fill="white"/>
<path d="M112.958 17.3923H87.0122C86.7137 17.3923 86.4717 17.661 86.4717 17.9923V22.7923C86.4717 23.1237 86.7137 23.3923 87.0122 23.3923H112.958C113.257 23.3923 113.499 23.1237 113.499 22.7923V17.9923C113.499 17.661 113.257 17.3923 112.958 17.3923Z" fill="white"/>
<path d="M112.955 57.4375H87.0093C86.7108 57.4375 86.4688 57.7061 86.4688 58.0375V62.8375C86.4688 63.1689 86.7108 63.4375 87.0093 63.4375H112.955C113.254 63.4375 113.496 63.1689 113.496 62.8375V58.0375C113.496 57.7061 113.254 57.4375 112.955 57.4375Z" fill="white"/>
<path d="M112.955 91.4375H87.0093C86.7108 91.4375 86.4688 91.7061 86.4688 92.0375V96.8375C86.4688 97.1689 86.7108 97.4375 87.0093 97.4375H112.955C113.254 97.4375 113.496 97.1689 113.496 96.8375V92.0375C113.496 91.7061 113.254 91.4375 112.955 91.4375Z" fill="white"/>
<path d="M112.955 74.4153H87.0093C86.7108 74.4153 86.4688 74.6839 86.4688 75.0153V79.8153C86.4688 80.1467 86.7108 80.4153 87.0093 80.4153H112.955C113.254 80.4153 113.496 80.1467 113.496 79.8153V75.0153C113.496 74.6839 113.254 74.4153 112.955 74.4153Z" fill="white"/>
<path d="M198.904 0.414551H194.58C194.281 0.414551 194.039 0.68318 194.039 1.01455V39.8146C194.039 40.1459 194.281 40.4146 194.58 40.4146H198.904C199.202 40.4146 199.444 40.1459 199.444 39.8146V1.01455C199.444 0.68318 199.202 0.414551 198.904 0.414551Z" fill="white"/>
<path d="M188.093 17.4206H174.219V1.01455C174.219 0.935756 174.205 0.857733 174.178 0.784935C174.151 0.712138 174.111 0.645992 174.061 0.590276C174.011 0.53456 173.951 0.490365 173.885 0.460213C173.82 0.430062 173.749 0.414546 173.678 0.414551H169.354C169.211 0.414575 169.073 0.477797 168.972 0.590314C168.871 0.70283 168.814 0.855428 168.814 1.01455V17.4206H163.949C163.805 17.4206 163.668 17.4839 163.567 17.5964C163.465 17.7089 163.408 17.8615 163.408 18.0206V22.8206C163.408 22.9797 163.465 23.1323 163.567 23.2448C163.668 23.3574 163.805 23.4206 163.949 23.4206H168.814V39.8146C168.814 39.9737 168.871 40.1263 168.972 40.2388C169.073 40.3513 169.211 40.4145 169.354 40.4146H173.678C173.749 40.4146 173.82 40.399 173.885 40.3689C173.951 40.3387 174.011 40.2945 174.061 40.2388C174.111 40.1831 174.151 40.117 174.178 40.0442C174.205 39.9714 174.219 39.8933 174.219 39.8146V23.4206H188.093C188.164 23.4206 188.234 23.4051 188.3 23.3749C188.365 23.3448 188.425 23.3006 188.475 23.2449C188.525 23.1892 188.565 23.123 188.592 23.0502C188.619 22.9774 188.633 22.8994 188.633 22.8206V18.0206C188.633 17.9418 188.619 17.8638 188.592 17.791C188.565 17.7182 188.525 17.652 188.475 17.5963C188.425 17.5406 188.365 17.4964 188.3 17.4663C188.234 17.4361 188.164 17.4206 188.093 17.4206V17.4206Z" fill="white"/>
<path d="M31.8268 23.3925H37.8227C37.966 23.3925 38.1035 23.3293 38.2049 23.2167C38.3063 23.1042 38.3632 22.9516 38.3632 22.7925V17.9925C38.3632 17.8333 38.3063 17.6807 38.2049 17.5682C38.1035 17.4557 37.966 17.3925 37.8227 17.3925H29.4202L22.8005 0.889159C22.7438 0.74787 22.6515 0.627845 22.5346 0.543612C22.4178 0.459379 22.2814 0.41455 22.1421 0.414551H16.7465C16.6072 0.414558 16.4708 0.459391 16.354 0.543623C16.2371 0.627856 16.1448 0.747877 16.0881 0.889159L9.46859 17.3925H1.06593C0.922571 17.3925 0.785082 17.4557 0.683711 17.5682C0.58234 17.6807 0.525391 17.8333 0.525391 17.9925V22.7925C0.525391 22.9516 0.58234 23.1042 0.683711 23.2167C0.785082 23.3293 0.922571 23.3925 1.06593 23.3925H7.06185L0.572803 39.5704C0.536158 39.6618 0.520665 39.7619 0.527734 39.8616C0.534804 39.9613 0.56421 40.0574 0.61328 40.1413C0.662351 40.2252 0.729529 40.2941 0.808708 40.3418C0.887887 40.3896 0.976555 40.4146 1.06665 40.4146H5.89226C6.0316 40.4146 6.16795 40.3697 6.28481 40.2855C6.40167 40.2012 6.49403 40.0812 6.5507 39.9399L19.4443 7.79482L32.3379 39.9399C32.3946 40.0812 32.487 40.2012 32.6038 40.2855C32.7207 40.3697 32.857 40.4146 32.9964 40.4146H37.8221C37.9122 40.4146 38.0008 40.3896 38.08 40.3418C38.1592 40.2941 38.2264 40.2252 38.2754 40.1413C38.3245 40.0575 38.3539 39.9613 38.361 39.8616C38.368 39.7619 38.3525 39.6619 38.3159 39.5705L31.8268 23.3925Z" fill="white"/>
<path d="M154.499 9.26953C153.499 6.64407 151.824 4.40396 149.683 2.82909C147.543 1.25422 145.032 0.41443 142.464 0.414647L127.238 0.414551C127.095 0.414575 126.957 0.477797 126.856 0.590314C126.755 0.70283 126.698 0.855428 126.698 1.01455V5.81455C126.698 5.97368 126.755 6.12629 126.856 6.23881C126.957 6.35133 127.095 6.41454 127.238 6.41455H142.464C143.469 6.4142 144.465 6.63381 145.394 7.06085C146.324 7.48789 147.168 8.11399 147.879 8.90335C148.59 9.69272 149.154 10.6299 149.539 11.6613C149.924 12.6928 150.121 13.7982 150.121 14.9146V14.9146C150.122 16.031 149.924 17.1365 149.539 18.1679C149.154 19.1993 148.59 20.1365 147.879 20.9259C147.168 21.7152 146.324 22.3413 145.394 22.7684C144.465 23.1954 143.469 23.415 142.464 23.4146L127.238 23.4146C127.095 23.4146 126.957 23.4778 126.856 23.5903C126.755 23.7028 126.698 23.8554 126.698 24.0146V39.8146C126.698 39.9737 126.755 40.1263 126.856 40.2388C126.957 40.3513 127.095 40.4145 127.238 40.4146H131.563C131.634 40.4146 131.704 40.3991 131.769 40.3689C131.835 40.3388 131.895 40.2946 131.945 40.2388C131.995 40.1831 132.035 40.117 132.062 40.0442C132.089 39.9714 132.103 39.8933 132.103 39.8146V29.4146L142.464 29.4146C144.179 29.4149 145.878 29.0402 147.463 28.3116C149.048 27.5831 150.488 26.515 151.701 25.1685C152.914 23.822 153.876 22.2234 154.533 20.464C155.189 18.7046 155.527 16.8189 155.526 14.9146L155.527 14.9146C155.528 12.9754 155.179 11.0557 154.499 9.26953V9.26953Z" fill="white"/>
<path d="M153.308 80.0469C154.766 77.6525 155.543 74.8278 155.54 71.9377L155.54 71.9375C155.541 70.0332 155.203 68.1475 154.547 66.3882C153.89 64.6288 152.928 63.0302 151.715 61.6836C150.502 60.3371 149.062 59.2691 147.477 58.5406C145.892 57.812 144.193 57.4373 142.477 57.4377L127.252 57.4375C127.109 57.4375 126.971 57.5008 126.87 57.6133C126.768 57.7258 126.711 57.8784 126.711 58.0375V62.8375C126.711 62.9966 126.768 63.1492 126.87 63.2618C126.971 63.3743 127.109 63.4375 127.252 63.4375H142.477C143.483 63.4372 144.479 63.6568 145.408 64.0838C146.337 64.5109 147.182 65.137 147.893 65.9263C148.604 66.7157 149.168 67.6529 149.553 68.6843C149.937 69.7157 150.135 70.8212 150.135 71.9375V71.9377C150.135 73.054 149.937 74.1595 149.553 75.1909C149.168 76.2223 148.604 77.1595 147.893 77.9489C147.182 78.7382 146.337 79.3643 145.408 79.7914C144.479 80.2184 143.483 80.438 142.477 80.4377L127.252 80.4375C127.109 80.4375 126.971 80.5008 126.87 80.6133C126.768 80.7258 126.711 80.8784 126.711 81.0375V96.8375C126.711 96.9966 126.768 97.1492 126.87 97.2618C126.971 97.3743 127.109 97.4375 127.252 97.4375H131.576C131.647 97.4375 131.718 97.422 131.783 97.3919C131.849 97.3617 131.908 97.3175 131.959 97.2618C132.009 97.2061 132.049 97.1399 132.076 97.0671C132.103 96.9943 132.117 96.9163 132.117 96.8375V86.4377L142.477 86.4375C143.382 86.4376 144.284 86.3336 145.169 86.1272L149.563 97.0817C149.605 97.1876 149.674 97.2776 149.762 97.3408C149.85 97.4039 149.952 97.4375 150.056 97.4375H154.999C155.089 97.4375 155.178 97.4126 155.257 97.3649C155.336 97.3172 155.403 97.2482 155.452 97.1644C155.502 97.0805 155.531 96.9844 155.538 96.8847C155.545 96.785 155.53 96.6849 155.493 96.5936L150.268 83.5675C151.452 82.5919 152.48 81.4017 153.308 80.0469V80.0469Z" fill="white"/>
<path d="M74.5905 57.4375H48.6445C48.5012 57.4375 48.3637 57.5007 48.2623 57.6132C48.161 57.7258 48.104 57.8784 48.104 58.0375V62.8375C48.104 62.9966 48.161 63.1492 48.2623 63.2618C48.3637 63.3743 48.5012 63.4375 48.6445 63.4375H67.0977L59.9199 73.6043C59.8657 73.681 59.8321 73.7731 59.8228 73.8701C59.8135 73.9671 59.829 74.065 59.8674 74.1527C59.9059 74.2404 59.9658 74.3143 60.0403 74.366C60.1147 74.4177 60.2008 74.4451 60.2887 74.4451H65.743C65.9069 74.4451 66.0688 74.4037 66.2162 74.3241C66.3636 74.2444 66.4927 74.1286 66.5939 73.9853L74.9008 62.2192C75.05 62.0079 75.131 61.7473 75.131 61.4789V58.0375C75.131 57.8784 75.0741 57.7258 74.9727 57.6132C74.8713 57.5007 74.7338 57.4375 74.5905 57.4375V57.4375Z" fill="white"/>
<path d="M74.5906 91.4375H54.2728L61.4398 81.2859C61.494 81.2091 61.5276 81.117 61.5369 81.02C61.5462 80.9231 61.5307 80.8252 61.4923 80.7375C61.4538 80.6498 61.3939 80.5759 61.3195 80.5242C61.245 80.4725 61.1589 80.4451 61.071 80.4451H55.6167C55.4527 80.4451 55.2909 80.4865 55.1435 80.5661C54.996 80.6458 54.8669 80.7617 54.7657 80.9049L46.5324 92.5671C46.3833 92.7783 46.3022 93.0389 46.3022 93.3073V96.8375C46.3022 96.9966 46.3592 97.1492 46.4606 97.2617C46.5619 97.3742 46.6994 97.4375 46.8428 97.4375H74.5905C74.7339 97.4375 74.8714 97.3742 74.9728 97.2617C75.0741 97.1492 75.1311 96.9966 75.1311 96.8375V92.0375C75.1311 91.8783 75.0741 91.7257 74.9728 91.6132C74.8714 91.5007 74.7339 91.4375 74.5906 91.4375V91.4375Z" fill="white"/>
<path d="M194.547 80.4006C194.42 80.4015 194.297 80.4519 194.2 80.5432C194.103 80.6345 194.037 80.7607 194.016 80.8999C193.863 81.8364 193.637 82.756 193.338 83.648C192.534 86.1338 191.058 88.283 189.111 89.8015C187.189 91.2524 184.912 92.0146 182.587 91.9855C181.021 91.9956 179.47 91.6578 178.023 90.9919C175.909 90.0024 174.127 88.301 172.93 86.1278C172.052 84.5231 171.452 82.7496 171.163 80.8994C171.142 80.7605 171.077 80.6344 170.98 80.5432C170.883 80.452 170.76 80.4016 170.633 80.4006H166.246C166.169 80.4004 166.093 80.4185 166.022 80.4538C165.952 80.489 165.889 80.5406 165.838 80.605C165.787 80.6694 165.749 80.7452 165.727 80.8273C165.705 80.9093 165.699 80.9957 165.709 81.0806C165.912 82.6772 166.269 84.2448 166.775 85.7561C167.935 89.3687 170.082 92.489 172.917 94.6815C175.752 96.8739 179.132 98.029 182.587 97.9854C184.872 97.9954 187.136 97.4983 189.245 96.5234C192.392 95.051 195.046 92.5234 196.835 89.2943C198.214 86.7879 199.11 83.9913 199.467 81.0813C199.477 80.9963 199.471 80.9098 199.448 80.8277C199.426 80.7456 199.388 80.6698 199.337 80.6053C199.286 80.5408 199.224 80.4892 199.153 80.4539C199.083 80.4186 199.006 80.4004 198.929 80.4007L194.547 80.4006Z" fill="white"/>
<path d="M170.622 74.4008C170.749 74.3999 170.872 74.3493 170.97 74.2579C171.067 74.1664 171.132 74.0399 171.154 73.9004C171.306 72.9539 171.534 72.0244 171.836 71.123C172.64 68.6373 174.116 66.488 176.063 64.9695C177.985 63.5186 180.262 62.7564 182.587 62.7855C184.153 62.7755 185.704 63.1133 187.151 63.7791C189.265 64.7686 191.047 66.4699 192.244 68.6431C193.127 70.2565 193.728 72.0403 194.016 73.901C194.037 74.0402 194.102 74.1665 194.199 74.2579C194.296 74.3492 194.419 74.3998 194.547 74.4008H198.931C199.009 74.401 199.085 74.3829 199.155 74.3477C199.226 74.3125 199.288 74.261 199.339 74.1966C199.39 74.1323 199.428 74.0566 199.45 73.9746C199.473 73.8927 199.479 73.8063 199.469 73.7214C199.267 72.1142 198.908 70.536 198.399 69.0148C197.239 65.4023 195.092 62.282 192.257 60.0895C189.423 57.8971 186.042 56.742 182.587 56.7856C180.302 56.7756 178.039 57.2727 175.929 58.2476C172.782 59.72 170.128 62.2475 168.339 65.4766C166.955 67.9922 166.058 70.7997 165.703 73.7208C165.693 73.8058 165.7 73.8922 165.722 73.9742C165.744 74.0562 165.782 74.132 165.833 74.1964C165.884 74.2608 165.947 74.3124 166.017 74.3476C166.088 74.3828 166.164 74.401 166.241 74.4007L170.622 74.4008Z" fill="white"/>
</svg>
