<svg width="200" height="49" viewBox="0 0 200 49" fill="none" xmlns="http://www.w3.org/2000/svg">
<g clip-path="url(#clip0_864_50)">
<path fill-rule="evenodd" clip-rule="evenodd" d="M69.0134 30.6855C68.6707 31.5645 68.1571 32.3669 67.5022 33.0461C66.8473 33.7146 66.0663 34.2466 65.2045 34.6113C64.2866 35.0011 63.2982 35.1973 62.3011 35.1877C61.173 35.1877 60.1629 34.9956 59.2764 34.6113C58.4231 34.2538 57.6593 33.7125 57.0393 33.0259C56.4222 32.3329 55.9493 31.5239 55.6483 30.6461C55.3215 29.7098 55.158 28.7243 55.1651 27.7327C55.1651 26.7001 55.3247 25.727 55.6483 24.8169C55.9487 23.9385 56.4216 23.1291 57.0393 22.436C57.6622 21.7479 58.4244 21.2002 59.2752 20.8293C60.1629 20.4315 61.173 20.2338 62.3011 20.2338C63.3483 20.2338 64.3146 20.427 65.2045 20.8102C66.091 21.1933 66.8561 21.7203 67.5022 22.3967C68.1554 23.0845 68.6687 23.8928 69.0134 24.7765C69.3764 25.6866 69.5561 26.6742 69.5561 27.7315C69.5561 28.7888 69.3764 29.7731 69.0134 30.6866V30.6855ZM69.2348 21.663H69.1561C68.3796 20.4737 67.2918 19.5201 66.0112 18.9057C64.7685 18.2959 63.4033 17.977 62.0191 17.9731C60.5393 17.9731 59.2011 18.2237 58.0056 18.7259C56.8543 19.198 55.8116 19.9004 54.9415 20.79C54.0846 21.6797 53.4134 22.7312 52.9674 23.8832C52.4955 25.0742 52.2595 26.3551 52.2595 27.7327C52.2595 29.1057 52.4955 30.3877 52.9674 31.5787C53.4135 32.7307 54.0846 33.7822 54.9415 34.672C55.8116 35.5615 56.8543 36.2639 58.0056 36.736C59.2011 37.236 60.5393 37.4888 62.0191 37.4888C63.4014 37.4858 64.7655 37.1733 66.0112 36.5742C67.2856 35.9791 68.3728 35.0465 69.155 33.8776H69.2348V37.0124H71.9775V12.3214H69.2359V21.6619L69.2348 21.663ZM89.0022 29.1192C89.0022 29.9394 88.8674 30.7181 88.6 31.4585C88.3408 32.1816 87.9449 32.8481 87.4337 33.4214C86.9054 34.0031 86.2577 34.4638 85.5348 34.772C84.782 35.1012 83.9213 35.2664 82.955 35.2664C82.4168 35.2664 81.8854 35.2068 81.3618 35.09C80.8533 34.9761 80.3685 34.7746 79.9292 34.4945C79.5036 34.2189 79.1509 33.8446 78.9011 33.4034C78.6483 32.9529 78.5191 32.399 78.5191 31.7372C78.5191 30.8641 78.8146 30.1641 79.4067 29.636C79.9977 29.1057 80.7595 28.7023 81.6854 28.4237C82.6977 28.1314 83.7378 27.9458 84.7887 27.8697C85.9216 27.7777 87.0577 27.7312 88.1943 27.7304H89.0022V29.1192V29.1192ZM91.5854 32.8495V24.7158C91.5854 23.5787 91.3955 22.5877 91.0191 21.7416C90.6655 20.9277 90.1269 20.2074 89.446 19.6383C88.7555 19.0733 87.9607 18.6495 87.1067 18.3911C86.18 18.107 85.2153 17.966 84.246 17.9731C82.6337 17.9731 81.1854 18.2248 79.9112 18.727C78.6348 19.2293 77.6067 19.8641 76.8269 20.6293L78.3584 22.4158C79.0314 21.7551 79.8494 21.2259 80.8191 20.8293C81.8177 20.4262 82.886 20.2239 83.9629 20.2338C85.6022 20.2338 86.8539 20.6293 87.7135 21.4136C88.573 22.2034 89.0022 23.3967 89.0022 24.9978V25.5888C87.2831 25.5888 85.6224 25.6495 84.0224 25.7686C82.4236 25.8866 81.0056 26.1506 79.7696 26.5641C78.5314 26.9754 77.5472 27.5978 76.8056 28.4349C76.0674 29.2697 75.6977 30.4046 75.6977 31.8383C75.6977 32.872 75.9056 33.7461 76.3224 34.4641C76.7154 35.1541 77.2519 35.7518 77.8955 36.2169C78.5247 36.6664 79.2247 36.9922 79.991 37.19C80.7206 37.384 81.472 37.4841 82.2269 37.4877C83.7595 37.4877 85.0707 37.2169 86.1606 36.6765C87.2483 36.1327 88.2224 35.2405 89.0842 33.9978H89.1629C89.1629 34.5001 89.191 35.0158 89.2438 35.545C89.2977 36.0754 89.3674 36.5619 89.446 37.0124H91.9045C91.7842 36.3705 91.7042 35.7217 91.6651 35.0697C91.6122 34.3308 91.5856 33.5903 91.5854 32.8495V32.8495ZM109.971 12.3225H107.229V18.4484H100.192V14.2945C100.192 13.6349 100.235 13.0136 100.33 12.4293C100.425 11.8495 100.6 11.3394 100.855 10.9046C101.111 10.4675 101.473 10.1293 101.943 9.89333C102.415 9.65401 103.015 9.53378 103.74 9.53378C104.116 9.53378 104.451 9.56187 104.747 9.61244C105.044 9.66637 105.338 9.73378 105.635 9.81244L106.118 7.43266C105.749 7.32404 105.371 7.25141 104.989 7.21581C104.613 7.1768 104.236 7.15655 103.858 7.15513C101.683 7.15513 100.069 7.76187 99.0202 8.98098C97.973 10.1967 97.4494 11.8607 97.4494 13.9776V18.4484H93.4977V20.7091H97.4494V37.0124H100.191V20.7079H107.23V32.2922C107.23 33.3237 107.383 34.1551 107.693 34.79C108.003 35.4248 108.4 35.927 108.881 36.2978C109.366 36.6675 109.891 36.9192 110.454 37.0506C111.02 37.1832 111.555 37.2484 112.069 37.2484C112.684 37.2484 113.256 37.2012 113.781 37.1091C114.297 37.0188 114.803 36.8796 115.292 36.6933L115.172 34.3529C114.792 34.5405 114.394 34.6874 113.983 34.7911C113.594 34.8922 113.195 34.9446 112.793 34.9473C112.39 34.9473 112.013 34.9023 111.665 34.8102C111.322 34.7219 111.008 34.5434 110.757 34.2933C110.499 34.0428 110.306 33.6933 110.172 33.245C110.037 32.7933 109.971 32.2259 109.971 31.5372V20.7079H115.292V18.4495H109.971V12.3237V12.3225ZM122.206 23.3282C122.647 22.745 123.204 22.2765 123.879 21.9203C124.549 21.5608 125.329 21.3843 126.216 21.3843C126.998 21.3843 127.764 21.5608 128.517 21.9203C129.268 22.2765 129.831 22.7203 130.208 23.2473L133.515 20.3933C132.735 19.4664 131.679 18.7416 130.349 18.2102C129.034 17.6855 127.631 17.4166 126.216 17.4181C124.847 17.4082 123.487 17.6501 122.206 18.1315C120.99 18.5868 119.875 19.2733 118.92 20.1529C117.964 21.0467 117.202 22.1275 116.681 23.3282C116.129 24.5709 115.855 25.9596 115.855 27.4933C115.855 29.0776 116.129 30.4933 116.681 31.7372C117.204 32.9404 117.973 34.0209 118.938 34.9091C119.906 35.7924 121.046 36.4674 122.285 36.8922C123.564 37.3428 124.911 37.5664 126.337 37.5664C127.789 37.5664 129.142 37.336 130.391 36.8742C131.64 36.4124 132.669 35.7574 133.473 34.9091L130.449 31.8945C129.994 32.4506 129.388 32.872 128.635 33.1641C127.882 33.4563 127.13 33.6023 126.377 33.6023C125.463 33.6023 124.663 33.4225 123.979 33.0652C123.313 32.7247 122.728 32.2445 122.264 31.6574C121.806 31.0703 121.458 30.4053 121.236 29.6945C121.01 28.9825 120.895 28.2402 120.894 27.4933C120.894 26.754 121.001 26.0181 121.216 25.2911C121.433 24.5641 121.763 23.9091 122.206 23.3282V23.3282ZM149.402 29.6349C149.186 30.3537 148.838 31.0261 148.376 31.6181C147.918 32.2012 147.342 32.6765 146.642 33.0473C145.942 33.4169 145.109 33.6012 144.14 33.6012C143.175 33.6012 142.339 33.4169 141.644 33.0473C140.97 32.7 140.379 32.2127 139.909 31.6181C139.446 31.0262 139.097 30.3538 138.88 29.6349C138.654 28.9163 138.539 28.1678 138.536 27.4147C138.536 26.6742 138.652 25.9405 138.88 25.2124C139.108 24.4855 139.453 23.8327 139.909 23.2461C140.377 22.6563 140.97 22.1765 141.644 21.8405C142.339 21.4843 143.175 21.3046 144.14 21.3046C145.109 21.3046 145.942 21.4843 146.642 21.8405C147.315 22.1777 147.907 22.6578 148.376 23.2473C148.833 23.8315 149.174 24.4855 149.402 25.2113C149.633 25.9416 149.745 26.6742 149.745 27.4136C149.745 28.1551 149.633 28.8945 149.402 29.6349ZM151.6 20.154C150.661 19.281 149.544 18.6079 148.256 18.1327C146.938 17.6505 145.544 17.4081 144.14 17.4169C142.692 17.4169 141.32 17.6551 140.031 18.1327C138.739 18.6079 137.624 19.281 136.682 20.154C135.732 21.0438 134.971 22.1166 134.446 23.3079C133.893 24.5394 133.618 25.9046 133.618 27.4147C133.618 28.9214 133.893 30.2967 134.446 31.5394C134.97 32.7421 135.73 33.8272 136.682 34.7304C137.653 35.6356 138.79 36.3434 140.031 36.8147C141.32 37.3158 142.692 37.5686 144.14 37.5686C145.592 37.5686 146.965 37.3158 148.256 36.8158C149.544 36.3124 150.661 35.6169 151.6 34.7315C152.553 33.8293 153.314 32.7435 153.837 31.5394C154.391 30.2967 154.667 28.9214 154.667 27.4147C154.667 25.9046 154.391 24.5383 153.837 23.3079C153.313 22.1157 152.552 21.0426 151.6 20.154V20.154ZM172.325 29.6945C172.074 30.4132 171.691 31.0787 171.195 31.6563C170.696 32.2397 170.086 32.7186 169.401 33.0652C168.701 33.4214 167.908 33.6012 167.024 33.6012C166.082 33.6012 165.261 33.4181 164.563 33.0473C163.89 32.6993 163.299 32.2125 162.828 31.6192C162.366 31.0277 162.018 30.3552 161.802 29.636C161.342 28.1966 161.342 26.6496 161.802 25.2102C162.022 24.4989 162.369 23.8337 162.828 23.2473C163.296 22.6571 163.888 22.1772 164.563 21.8416C165.261 21.4821 166.082 21.3057 167.024 21.3057C167.908 21.3057 168.701 21.4888 169.401 21.8596C170.083 22.2192 170.692 22.7036 171.195 23.2877C171.693 23.872 172.069 24.5327 172.325 25.2731C172.577 26.0113 172.708 26.7518 172.708 27.4933C172.708 28.2349 172.577 28.9675 172.325 29.6945V29.6945ZM172.546 20.3922H172.425C172.145 20.0351 171.835 19.7035 171.497 19.4012C171.085 19.0336 170.632 18.7143 170.147 18.4495C169.565 18.1356 168.949 17.8894 168.311 17.7158C167.613 17.5169 166.82 17.4181 165.934 17.4181C164.563 17.4181 163.298 17.6765 162.142 18.1922C161.013 18.6888 159.999 19.4106 159.16 20.3136C158.313 21.2341 157.655 22.3117 157.224 23.4855C156.76 24.7423 156.527 26.0727 156.537 27.4124C156.537 28.8147 156.761 30.1293 157.203 31.3607C157.621 32.5439 158.264 33.6349 159.098 34.5731C159.933 35.4964 160.948 36.2383 162.082 36.7529C163.252 37.2956 164.576 37.5675 166.054 37.5675C167.387 37.5758 168.704 37.277 169.903 36.6945C171.068 36.1428 172.044 35.2594 172.708 34.1551H172.788V37.0136H177.384V12.3214H172.546V20.3922ZM185.242 25.5888C185.348 24.2394 185.907 23.1372 186.915 22.2765C187.925 21.4169 189.154 20.9866 190.606 20.9866C191.383 20.9866 192.061 21.1124 192.639 21.3652C193.219 21.6169 193.695 21.9529 194.072 22.3742C194.448 22.799 194.724 23.2877 194.897 23.8439C195.073 24.3978 195.162 24.981 195.162 25.5888H185.242ZM199.293 23.2293C198.824 21.9461 198.171 20.8742 197.339 20.0158C196.506 19.1576 195.494 18.4939 194.375 18.072C193.233 17.6372 191.988 17.4181 190.645 17.4181C189.192 17.4181 187.843 17.6619 186.593 18.1506C185.383 18.614 184.279 19.3159 183.346 20.2147C182.415 21.1265 181.682 22.2199 181.192 23.427C180.665 24.6832 180.403 26.0787 180.403 27.6102C180.403 29.1731 180.665 30.5664 181.192 31.7978C181.713 33.0248 182.439 34.0652 183.367 34.9091C184.322 35.7746 185.439 36.4425 186.653 36.8742C187.918 37.3349 189.3 37.5675 190.804 37.5675C194.434 37.5675 197.202 36.2978 199.112 33.7608L195.886 31.2214C195.357 31.9802 194.652 32.599 193.83 33.0248C192.995 33.463 191.974 33.6799 190.765 33.6799C190.078 33.683 189.395 33.562 188.751 33.3225C188.123 33.0956 187.537 32.7677 187.015 32.3518C186.511 31.9488 186.094 31.4491 185.786 30.8821C185.473 30.3012 185.287 29.6599 185.242 29.0012H199.958C199.986 28.7907 200 28.5787 200 28.3664V27.7315C200 26.0124 199.763 24.5124 199.293 23.2293V23.2293ZM19.709 1.2439L17.3696 7.21581L21.964 6.39221L19.709 1.2439V1.2439Z" fill="white"/>
<mask id="mask0_864_50" style="mask-type:alpha" maskUnits="userSpaceOnUse" x="0" y="0" width="43" height="49">
<path d="M0 0H43V48.3146H0V0Z" fill="white"/>
</mask>
<g mask="url(#mask0_864_50)">
<path fill-rule="evenodd" clip-rule="evenodd" d="M21.4067 13.8573C20.8478 13.8612 20.3058 13.666 19.8776 13.3068C19.4494 12.9476 19.163 12.4477 19.0697 11.8966L23.7348 11.0618C23.7618 11.2124 23.7787 11.3652 23.7787 11.5225C23.7787 12.8112 22.7157 13.8573 21.4079 13.8573H21.4067ZM2.20225 13.3551L1.25169 15.8315V12.5944L5.04157 11.9169L2.20225 13.3551ZM39.3708 43.1404L26.8708 0L23.4742 7.39888L0 11.5978V33L5.02697 28.3438L6.94494 31.0742L10.9595 27.3562L12.4011 29.4067L15.6528 26.3966L14.2955 48.3146H40.8685L42.9989 40.4607L39.3719 43.1404H39.3708Z" fill="white"/>
</g>
</g>
<defs>
<clipPath id="clip0_864_50">
<rect width="200" height="48.3146" fill="white"/>
</clipPath>
</defs>
</svg>
