<svg width="200" height="45" viewBox="0 0 200 45" fill="none" xmlns="http://www.w3.org/2000/svg">
<g clip-path="url(#clip0_855_77)">
<path d="M5.97332 19.526L2.04604 28.7884L0 28.2379L0.390974 18.0234L5.97332 19.526Z" fill="#FF3F3F"/>
<path d="M37.0479 23.8618L40.9751 14.5994L43.0194 15.1499L42.6284 25.3643L37.0479 23.8618Z" fill="#FF3F3F"/>
<path d="M41.6468 6.39946L33.8378 4.29731L30.7363 11.9222L21.0391 9.40628L24.649 0.54361C24.6749 0.480929 24.6842 0.412631 24.676 0.345311C24.6678 0.277991 24.6424 0.213923 24.6022 0.15929C24.562 0.104658 24.5085 0.061307 24.4466 0.0334228C24.3848 0.00553856 24.3169 -0.00593728 24.2493 0.000103147L17.2486 0.61374C16.89 0.644688 16.5468 0.773781 16.2567 0.986863C15.9666 1.19995 15.7408 1.48879 15.604 1.82173L13.3985 7.18842L8.13871 5.77179L4.98286 13.3002L10.2935 14.7274L1.25195 36.6956L9.06267 38.7995L12.087 31.3832L21.7562 33.9868L17.8552 43.5666C17.8286 43.6321 17.8201 43.7035 17.8306 43.7734C17.841 43.8434 17.8701 43.9092 17.9147 43.964C17.9593 44.0189 18.0179 44.0607 18.0842 44.0851C18.1505 44.1096 18.2222 44.1158 18.2918 44.1031L25.7939 42.7092C26.1164 42.6496 26.4187 42.51 26.6733 42.3032C26.9278 42.0965 27.1264 41.8292 27.2509 41.5258L29.4898 36.0644L34.0307 37.2917L37.2987 29.7913L32.5842 28.5219L41.6468 6.39946ZM15.1727 23.825L17.9779 16.954L27.6646 19.4612L24.8296 26.4215L15.1727 23.825Z" fill="white"/>
<path d="M13.9119 15.76L1.26221 36.6921L10.2441 14.7537L13.9119 15.76Z" fill="url(#paint0_linear_855_77)"/>
<path d="M29.0322 27.512L41.5276 6.48706L32.6106 28.5043L29.0322 27.512Z" fill="url(#paint1_linear_855_77)"/>
<path d="M76.4747 17.8831H66.7267V7.99658H60.2046V33.6782H66.7267V23.5812H76.4747V33.6782H82.9968V7.99658H76.4747V17.8831Z" fill="white"/>
<path d="M100.349 14.7868C98.9707 14.2024 97.2875 13.9102 95.2994 13.9102C94.5981 13.9102 93.8266 13.9218 92.9851 13.9452C92.1669 13.9686 91.3721 14.0037 90.6007 14.0504C89.8292 14.0972 89.163 14.1439 88.6019 14.1907V19.5398C89.3979 19.4919 90.2745 19.4446 91.2318 19.3978C92.1891 19.3511 93.1031 19.3137 93.9739 19.2856C94.84 19.2634 95.4946 19.2517 95.9375 19.2506C96.8726 19.2506 97.5388 19.4732 97.9362 19.9185C98.3465 20.3311 98.5563 20.9646 98.5657 21.8191H95.5097C93.9322 21.7943 92.36 22.0077 90.8461 22.452C89.4914 22.8739 88.4278 23.5425 87.6552 24.4577C86.8838 25.3483 86.498 26.5213 86.498 27.9765C86.498 29.2622 86.7903 30.3761 87.3747 31.3182C87.9923 32.2378 88.8546 32.9665 89.8643 33.4221C90.9988 33.932 92.2323 34.1841 93.476 34.1602C94.833 34.1602 95.9668 33.9141 96.8773 33.4221C97.7932 32.95 98.5495 32.2181 99.0513 31.3182C99.2817 30.9113 99.4696 30.4818 99.6123 30.0365V33.6745H104.669V21.8927C104.669 20.0868 104.295 18.5978 103.547 17.4254C102.791 16.2261 101.67 15.3011 100.349 14.7868V14.7868ZM98.0695 28.5428C97.8257 28.9982 97.4456 29.366 96.9825 29.5947C96.5168 29.7909 96.0149 29.8864 95.5097 29.8752C94.646 29.8752 93.9797 29.6643 93.511 29.2423C93.2795 29.0205 93.0974 28.7524 92.9765 28.4554C92.8557 28.1584 92.7988 27.8393 92.8097 27.5189C92.794 27.1979 92.8486 26.8773 92.9698 26.5796C93.0909 26.2819 93.2756 26.0142 93.511 25.7954C93.9786 25.3478 94.6448 25.1245 95.5097 25.1257H98.5604V26.4985C98.5148 27.3693 98.3512 28.0507 98.0695 28.5428Z" fill="white"/>
<path d="M123.409 23.5112C122.077 22.3856 120.172 21.6936 117.694 21.4353L116.361 21.2951C115.402 21.1782 114.7 21.0028 114.257 20.7691C114.059 20.6669 113.894 20.5098 113.782 20.3164C113.67 20.1231 113.616 19.9017 113.626 19.6786C113.623 19.4525 113.684 19.2302 113.802 19.0373C113.92 18.8444 114.09 18.6887 114.293 18.588C114.846 18.31 115.462 18.1767 116.081 18.2006C117.086 18.2006 117.857 18.4115 118.395 18.8335C118.644 19.0043 118.855 19.223 119.018 19.4768C119.18 19.7306 119.291 20.0144 119.342 20.3115H124.952C124.858 18.1784 124.016 16.5484 122.428 15.4217C120.838 14.2715 118.746 13.6965 116.151 13.6965C114.706 13.6707 113.268 13.9083 111.908 14.3978C110.755 14.8025 109.744 15.5334 108.998 16.5017C108.296 17.4169 107.946 18.5898 107.946 20.0204C107.946 21.6849 108.53 23.0682 109.699 24.1704C110.868 25.2726 112.691 25.9529 115.169 26.2112L116.502 26.3532C117.739 26.4701 118.593 26.6927 119.061 27.0212C119.273 27.1409 119.45 27.3146 119.573 27.5246C119.696 27.7346 119.762 27.9734 119.763 28.2169C119.763 28.7791 119.459 29.1882 118.851 29.4442C118.178 29.6937 117.464 29.8127 116.747 29.7948C115.6 29.7948 114.712 29.5838 114.082 29.1619C113.452 28.7399 113.09 28.2356 112.995 27.6488H107.385C107.502 29.7597 108.367 31.4014 109.98 32.5737C111.593 33.7238 113.802 34.2989 116.607 34.2989C118.43 34.2989 119.996 34.0406 121.306 33.524C122.638 33.0085 123.655 32.2698 124.356 31.3079C125.092 30.3112 125.475 29.0977 125.443 27.8592C125.443 26.0627 124.765 24.6134 123.409 23.5112Z" fill="white"/>
<path d="M140.854 13.6245H140.574C139.171 13.6245 137.991 13.9646 137.032 14.6449C136.156 15.2796 135.484 16.2035 134.999 17.408V7.99658H128.617V33.6782H135V22.4574C135 21.5223 135.281 20.7719 135.842 20.2062C136.122 19.9153 136.461 19.6869 136.835 19.5358C137.21 19.3848 137.612 19.3145 138.016 19.3296C138.904 19.3296 139.617 19.6218 140.155 20.2062C140.694 20.7696 140.962 21.4966 140.961 22.3872V33.6799H147.343V22.6344C147.343 19.6796 146.782 17.4402 145.66 15.916C144.56 14.3883 142.958 13.6245 140.854 13.6245Z" fill="white"/>
<path d="M167.723 23.3007C167.746 24.2234 167.554 25.1388 167.162 25.9744C166.797 26.6921 166.222 27.2812 165.514 27.6628C164.79 28.0613 163.902 28.2606 162.849 28.2606C161.796 28.2606 160.907 28.0613 160.184 27.6628C159.463 27.2721 158.874 26.675 158.494 25.9481C158.105 25.1269 157.913 24.2265 157.933 23.3182V7.99658H151.411V23.1587C151.411 25.4589 151.855 27.453 152.743 29.1408C153.613 30.7871 154.957 32.1349 156.6 33.0102C158.307 33.9254 160.387 34.383 162.842 34.383C165.296 34.383 167.365 33.9254 169.048 33.0102C170.702 32.1484 172.049 30.797 172.905 29.1408C173.793 27.453 174.237 25.4589 174.238 23.1587V7.99658H167.723V23.3007Z" fill="white"/>
<path d="M199.369 19.5715C199.004 18.4299 198.407 17.3759 197.616 16.4753C196.859 15.5935 195.912 14.8956 194.846 14.4345C193.71 13.9288 192.477 13.6763 191.234 13.6946C189.796 13.6666 188.378 14.0302 187.131 14.7466C185.91 15.4576 184.923 16.5092 184.291 17.7727C184.066 18.224 183.878 18.6931 183.73 19.1753V14.2662H178.681V40.7227H185.062V31.4778C185.652 32.2919 186.419 32.9606 187.307 33.4327C188.538 34.0371 189.897 34.3377 191.269 34.3093C192.547 34.3345 193.815 34.082 194.986 33.5694C196.056 33.0992 197.004 32.389 197.756 31.4936C198.517 30.5572 199.089 29.4818 199.439 28.3272C199.824 27.0379 200.013 25.6981 200 24.3526V23.5111C200.015 22.1716 199.802 20.8393 199.369 19.5715V19.5715ZM193.057 26.5722C192.736 27.311 192.214 27.9446 191.55 28.4009C190.894 28.8308 190.124 29.0521 189.34 29.0355C188.602 29.0378 187.874 28.8595 187.22 28.516C186.566 28.1725 186.006 27.6743 185.588 27.0649C185.132 26.3648 184.9 25.5422 184.922 24.7068V23.5111C184.898 22.6499 185.117 21.7994 185.553 21.0565C185.944 20.4066 186.501 19.8727 187.166 19.5101C187.837 19.1604 188.584 18.9798 189.34 18.9842C190.123 18.9656 190.895 19.1795 191.556 19.5989C192.218 20.0183 192.74 20.6244 193.057 21.3405C193.451 22.1508 193.643 23.0438 193.618 23.9441C193.633 24.8514 193.442 25.7502 193.057 26.5722Z" fill="white"/>
</g>
<defs>
<linearGradient id="paint0_linear_855_77" x1="11.3627" y1="16.7068" x2="6.0889" y2="27.4033" gradientUnits="userSpaceOnUse">
<stop stop-color="#D8D8D8"/>
<stop offset="1" stop-color="white" stop-opacity="0"/>
</linearGradient>
<linearGradient id="paint1_linear_855_77" x1="31.2431" y1="27.7943" x2="37.2181" y2="11.8152" gradientUnits="userSpaceOnUse">
<stop stop-color="#DFDFDF"/>
<stop offset="1" stop-color="white" stop-opacity="0"/>
</linearGradient>
<clipPath id="clip0_855_77">
<rect width="200" height="44.103" fill="white"/>
</clipPath>
</defs>
</svg>
