<svg width="200" height="166" viewBox="0 0 200 166" fill="none" xmlns="http://www.w3.org/2000/svg">
<g clip-path="url(#clip0_864_132)">
<path d="M9.23406 164.576H15.2103L21.5784 147.038L27.8486 164.576H33.8248L42.5443 139.103H36.4701L30.7389 157.081L24.4195 139.103H18.6392L12.3201 157.081L6.58882 139.103H0.514648L9.23406 164.576ZM56.4727 165.359C62.547 165.359 67.1029 161.734 67.8864 156.884H62.1552C61.7141 158.844 59.6079 160.656 56.4727 160.656C52.113 160.656 49.6638 157.815 49.3208 153.602H68.0825V151.496C68.0825 143.169 62.8899 138.319 56.4727 138.319C48.8309 138.319 43.3939 143.904 43.3939 151.79C43.3939 159.726 48.8309 165.359 56.4727 165.359ZM49.3208 149.635C49.9087 145.814 52.211 143.267 56.2771 143.267C59.804 143.267 62.1552 145.912 62.3513 149.635H49.3208ZM71.9238 164.576H77.7043V151.839C77.7043 146.793 80.3984 143.267 84.6113 143.267C88.1383 143.267 90.0976 145.814 90.0976 149.88V164.576H95.9269V149.635C95.9269 142.189 92.7918 138.319 86.5214 138.319C82.3578 138.319 79.4675 140.279 77.7043 143.218V139.103H71.9238V164.576ZM100.288 164.576H106.068V151.839C106.068 146.793 108.762 143.267 112.975 143.267C116.502 143.267 118.461 145.814 118.461 149.88V164.576H124.29V149.635C124.29 142.189 121.156 138.319 114.885 138.319C110.722 138.319 107.831 140.279 106.068 143.218V139.103H100.288V164.576ZM140.751 165.359C146.825 165.359 151.38 161.734 152.164 156.884H146.433C145.992 158.844 143.886 160.656 140.751 160.656C136.391 160.656 133.942 157.815 133.599 153.602H152.361V151.496C152.361 143.169 147.168 138.319 140.751 138.319C133.109 138.319 127.672 143.904 127.672 151.79C127.672 159.726 133.109 165.359 140.751 165.359ZM133.599 149.635C134.187 145.814 136.489 143.267 140.555 143.267C144.082 143.267 146.433 145.912 146.629 149.635H133.599ZM168.301 165.359C174.424 165.359 178.98 161.342 179.764 155.905H174.033C173.641 158.501 171.338 160.411 168.105 160.411C163.99 160.411 161.051 156.884 161.051 151.79C161.051 146.745 163.99 143.267 168.105 143.267C171.24 143.267 173.592 145.226 174.033 147.871H179.764C178.98 142.385 174.376 138.319 168.301 138.319C160.61 138.319 155.222 143.904 155.222 151.79C155.222 159.726 160.61 165.359 168.301 165.359ZM197.884 164.526V159.481C192.202 159.922 192.006 159.432 192.006 155.219V144.246H199.06V139.103H192.006V132.245H186.226V139.103H180.789V144.246H186.226V157.717C186.079 164.918 189.949 165.212 197.884 164.526Z" fill="white"/>
<path d="M119.229 90.611C113.95 81.5968 108.479 72.3601 100.414 72.3601C92.3487 72.3601 86.8925 81.5968 81.6147 90.611" stroke="#FF592C" stroke-width="6" stroke-miterlimit="10"/>
<path d="M138.711 56.0513C138.711 74.3318 151.817 103.169 138.711 107.276C130.408 109.885 124.922 100.396 119.229 90.6702" stroke="#77A7BF" stroke-width="6" stroke-miterlimit="10"/>
<path d="M62.133 56.0513C62.133 74.3318 49.0116 103.169 62.133 107.276C70.4354 109.885 75.9213 100.396 81.6147 90.6702" stroke="#77A7BF" stroke-width="6" stroke-miterlimit="10"/>
<path d="M81.6147 21.3875C86.8925 30.4017 92.3635 39.6235 100.414 39.6235C108.465 39.6235 113.95 30.4017 119.229 21.3875" stroke="#FF592C" stroke-width="6" stroke-miterlimit="10"/>
<path d="M62.133 56.0508C62.133 37.7703 49.0116 8.94816 62.133 4.82647C70.4354 2.21706 75.9213 11.7058 81.6147 21.4468" stroke="#77A7BF" stroke-width="6" stroke-miterlimit="10"/>
<path d="M138.711 56.0508C138.711 37.7703 151.817 8.94816 138.711 4.82647C130.408 2.21706 124.922 11.7058 119.229 21.4468" stroke="#77A7BF" stroke-width="6" stroke-miterlimit="10"/>
<path d="M100.429 94.2729C121.571 94.2729 138.71 77.1343 138.71 55.9917C138.71 34.8496 121.571 17.7104 100.429 17.7104C79.2866 17.7104 62.1475 34.8496 62.1475 55.9917C62.1475 77.1343 79.2866 94.2729 100.429 94.2729Z" stroke="white" stroke-width="6" stroke-miterlimit="10"/>
<path d="M84.0463 19.6672C83.8238 19.2673 83.5861 18.8669 83.3493 18.4666C81.5401 19.2826 79.796 20.2341 78.1304 21.3133C78.3973 21.7581 78.6642 22.2025 78.9307 22.6771L79.0646 22.8847C79.7463 24.0414 80.4432 25.242 81.1546 26.4135C82.8126 25.3296 84.5581 24.3872 86.3735 23.5965C85.6325 22.3657 84.891 21.1205 84.1792 19.8897L84.0463 19.6672Z" fill="#B9EDEA"/>
<path d="M116.797 19.6674L116.679 19.8899C115.952 21.1207 115.196 22.3658 114.484 23.5967C116.316 24.386 118.082 25.3231 119.763 26.3989C120.474 25.2274 121.245 24.0262 121.853 22.87L121.986 22.6624C122.253 22.1879 122.52 21.743 122.787 21.2986C121.12 20.2228 119.375 19.2713 117.568 18.4519L116.797 19.6674Z" fill="#B9EDEA"/>
<path d="M59.168 56.0508C59.1627 61.9681 60.4423 67.8161 62.9188 73.19C65.8248 61.949 65.8248 50.1531 62.9188 38.9121C60.4443 44.2865 59.1646 50.134 59.168 56.0508Z" fill="#B9EDEA"/>
<path d="M121.779 89.1133C121.097 87.9423 120.4 86.7559 119.688 85.5701C118.034 86.6593 116.288 87.6017 114.47 88.3871C115.211 89.6175 115.952 90.8631 116.664 92.1083L116.783 92.3159L117.494 93.5319C119.299 92.7015 121.042 91.7452 122.713 90.6704L121.912 89.3209L121.779 89.1133Z" fill="#B9EDEA"/>
<path d="M79.0646 89.1133L78.9307 89.3209L78.1304 90.6704C79.7955 91.7452 81.5344 92.7015 83.3345 93.5319C83.5717 93.1167 83.8238 92.7163 84.0463 92.3159L84.1792 92.1083C84.9059 90.8631 85.6621 89.6175 86.3735 88.3871C84.5552 87.6017 82.8092 86.6593 81.1546 85.5701C80.4432 86.7559 79.7314 87.9423 79.0646 89.1133Z" fill="#B9EDEA"/>
<path d="M141.675 56.0508C141.679 50.134 140.399 44.2865 137.925 38.9121C136.661 44.5438 135.931 50.2822 135.745 56.0508C135.931 61.8198 136.661 67.5582 137.925 73.19C140.384 67.8103 141.663 61.9662 141.675 56.0508Z" fill="#B9EDEA"/>
</g>
<defs>
<clipPath id="clip0_864_132">
<rect width="200" height="165.644" fill="white"/>
</clipPath>
</defs>
</svg>
