<svg width="200" height="73" viewBox="0 0 200 73" fill="none" xmlns="http://www.w3.org/2000/svg">
<path d="M82.2785 45.0116H85.9745L89.913 34.1656L93.7912 45.0116H97.4873L102.88 29.2574H99.1233L95.5785 40.3762L91.6703 29.2574H88.0954L84.1873 40.3762L80.6424 29.2574H76.8857L82.2785 45.0116ZM111.495 45.4962C115.251 45.4962 118.069 43.2544 118.554 40.255H115.009C114.736 41.4668 113.434 42.5877 111.495 42.5877C108.798 42.5877 107.283 40.8307 107.071 38.2253H118.675V36.9222C118.675 31.7719 115.463 28.7725 111.495 28.7725C106.768 28.7725 103.405 32.2265 103.405 37.104C103.405 42.0122 106.768 45.4962 111.495 45.4962ZM107.071 35.771C107.435 33.408 108.859 31.8325 111.373 31.8325C113.555 31.8325 115.009 33.4686 115.13 35.771H107.071ZM121.051 45.0116H124.626V37.1344C124.626 34.0141 126.292 31.8325 128.898 31.8325C131.079 31.8325 132.291 33.408 132.291 35.9225V45.0116H135.896V35.771C135.896 31.1662 133.957 28.7725 130.079 28.7725C127.504 28.7725 125.716 29.9847 124.626 31.8022V29.2574H121.051V45.0116ZM138.593 45.0116H142.168V37.1344C142.168 34.0141 143.834 31.8325 146.44 31.8325C148.621 31.8325 149.833 33.408 149.833 35.9225V45.0116H153.438V35.771C153.438 31.1662 151.499 28.7725 147.621 28.7725C145.046 28.7725 143.258 29.9847 142.168 31.8022V29.2574H138.593V45.0116ZM163.618 45.4962C167.375 45.4962 170.193 43.2544 170.678 40.255H167.133C166.86 41.4668 165.557 42.5877 163.618 42.5877C160.922 42.5877 159.407 40.8307 159.195 38.2253H170.799V36.9222C170.799 31.7719 167.587 28.7725 163.618 28.7725C158.892 28.7725 155.529 32.2265 155.529 37.104C155.529 42.0122 158.892 45.4962 163.618 45.4962ZM159.195 35.771C159.559 33.408 160.983 31.8325 163.497 31.8325C165.678 31.8325 167.133 33.4686 167.254 35.771H159.195ZM180.658 45.4962C184.445 45.4962 187.262 43.0119 187.747 39.6492H184.202C183.96 41.2547 182.536 42.4362 180.537 42.4362C177.992 42.4362 176.174 40.255 176.174 37.104C176.174 33.9837 177.992 31.8325 180.537 31.8325C182.475 31.8325 183.93 33.0444 184.202 34.6804H187.747C187.262 31.2874 184.415 28.7725 180.658 28.7725C175.901 28.7725 172.569 32.2265 172.569 37.104C172.569 42.0122 175.901 45.4962 180.658 45.4962ZM198.954 44.9813V41.8607C195.44 42.1334 195.318 41.8304 195.318 39.225V32.4386H199.681V29.2574H195.318V25.0159H191.744V29.2574H188.381V32.4386H191.744V40.7701C191.653 45.2234 194.046 45.4053 198.954 44.9813Z" fill="white"/>
<path d="M43.5714 57.5872C40.3072 52.012 36.9236 46.2993 31.9351 46.2993C26.9469 46.2993 23.5723 52.012 20.3081 57.5872" stroke="#FF592C" stroke-width="4" stroke-miterlimit="10"/>
<path d="M55.6204 36.2114C55.6204 47.5178 63.7261 65.3526 55.6204 67.8926C50.4852 69.5066 47.0925 63.6381 43.5713 57.6226" stroke="#77A7BF" stroke-width="4" stroke-miterlimit="10"/>
<path d="M8.25908 36.2114C8.25908 47.5178 0.143926 65.3526 8.25908 67.8926C13.394 69.5066 16.7867 63.6381 20.3079 57.6226" stroke="#77A7BF" stroke-width="4" stroke-miterlimit="10"/>
<path d="M20.3081 14.7749C23.5723 20.3501 26.956 26.0534 31.9351 26.0534C36.9142 26.0534 40.3072 20.3501 43.5714 14.7749" stroke="#FF592C" stroke-width="4" stroke-miterlimit="10"/>
<path d="M8.25908 36.2125C8.25908 24.9064 0.143926 7.08069 8.25908 4.5316C13.394 2.91766 16.7867 8.78614 20.3079 14.8107" stroke="#77A7BF" stroke-width="4" stroke-miterlimit="10"/>
<path d="M55.6204 36.2125C55.6204 24.9064 63.7261 7.08069 55.6204 4.5316C50.4852 2.91766 47.0925 8.78614 43.5713 14.8107" stroke="#77A7BF" stroke-width="4" stroke-miterlimit="10"/>
<path d="M31.9442 59.8526C45.0202 59.8526 55.6202 49.2523 55.6202 36.1765C55.6202 23.1005 45.0202 12.5005 31.9442 12.5005C18.8684 12.5005 8.26807 23.1005 8.26807 36.1765C8.26807 49.2523 18.8684 59.8526 31.9442 59.8526Z" stroke="white" stroke-width="4" stroke-miterlimit="10"/>
<path d="M21.8116 13.7105C21.674 13.4629 21.5274 13.2153 21.3804 12.9678C20.2619 13.4726 19.1828 14.0611 18.1528 14.7284C18.318 15.0035 18.4828 15.2787 18.648 15.572L18.7307 15.7005C19.1525 16.4156 19.5834 17.1584 20.0234 17.8829C21.0486 17.2126 22.1283 16.6299 23.2513 16.1405C22.7928 15.3796 22.3343 14.6093 21.894 13.8481L21.8116 13.7105Z" fill="#B9EDEA"/>
<path d="M42.0675 13.7106L41.9942 13.8481C41.5451 14.609 41.0772 15.3793 40.6372 16.1406C41.7705 16.6287 42.8624 17.2081 43.9014 17.8736C44.3417 17.149 44.8184 16.4063 45.1945 15.6912L45.2769 15.5627C45.4421 15.2693 45.6072 14.9942 45.7721 14.7193C44.7411 14.0539 43.6621 13.4654 42.5445 12.9587L42.0675 13.7106Z" fill="#B9EDEA"/>
<path d="M6.42482 36.2138C6.42145 39.8735 7.21306 43.4902 8.74475 46.8138C10.5419 39.8614 10.5419 32.5663 8.74475 25.6135C7.21415 28.9378 6.42263 32.5541 6.42482 36.2138Z" fill="#B9EDEA"/>
<path d="M45.1487 56.6603C44.7269 55.936 44.296 55.2024 43.856 54.4688C42.8327 55.1424 41.753 55.7254 40.6284 56.2112C41.0869 56.9721 41.5451 57.7424 41.9854 58.5127L42.0587 58.6412L42.4987 59.393C43.6148 58.8794 44.6936 58.2881 45.7266 57.6233L45.2314 56.7888L45.1487 56.6603Z" fill="#B9EDEA"/>
<path d="M18.7307 56.6603L18.648 56.7888L18.1528 57.6233C19.1828 58.2881 20.2583 58.8794 21.3716 59.393C21.5183 59.1363 21.674 58.8887 21.8116 58.6412L21.894 58.5127C22.3434 57.7424 22.811 56.9721 23.2513 56.2112C22.1265 55.7254 21.0465 55.1424 20.0234 54.4688C19.5834 55.2024 19.1431 55.936 18.7307 56.6603Z" fill="#B9EDEA"/>
<path d="M57.454 36.2138C57.4561 32.5541 56.6646 28.9378 55.134 25.6135C54.3522 29.0969 53.901 32.6459 53.7861 36.2138C53.901 39.7817 54.3522 43.3308 55.134 46.8138C56.6552 43.4866 57.4464 39.8723 57.454 36.2138Z" fill="#B9EDEA"/>
</svg>
